<svg width="90" height="90" viewBox="0 0 90 90" fill="none" xmlns="http://www.w3.org/2000/svg">
<rect width="90" height="90" rx="45" fill="#EAEAEA"/>
<g clip-path="url(#clip0_8_779)">
<path d="M45.0079 12.5C27.0873 12.5 12.5 27.0873 12.5 45.0079C12.5 62.9286 27.0873 77.5159 45.0079 77.5159C62.9286 77.5159 77.5159 62.9286 77.5159 45.0079C77.5 27.0873 62.9286 12.5 45.0079 12.5Z" fill="#00285E"/>
<path d="M74.1191 45.008C74.1191 28.9286 61.0873 15.8969 44.9921 15.8969C28.9127 15.8969 15.8651 28.9286 15.8651 45.008C15.8651 61.0873 28.9127 74.1349 44.9921 74.1349C61.0873 74.1191 74.1191 61.0873 74.1191 45.008Z" fill="white"/>
<path d="M63.5476 45.0079C63.5476 34.7698 55.246 26.4683 45.0079 26.4683C34.7698 26.4683 26.4683 34.7698 26.4683 45.0079C26.4683 55.246 34.7698 63.5476 45.0079 63.5476C55.246 63.5476 63.5476 55.246 63.5476 45.0079Z" fill="#6CADDF"/>
<path d="M45.0079 65.0079C33.9762 65.0079 25.0079 56.0238 25.0079 44.9921C25.0079 33.9603 33.9762 24.9921 45.0079 24.9921C56.0397 24.9921 65.0238 33.9603 65.0238 44.9921C65.0079 56.0397 56.0397 65.0079 45.0079 65.0079ZM45.0079 26.1191C34.5952 26.1191 26.119 34.5952 26.119 45.0079C26.119 55.4206 34.5952 63.8968 45.0079 63.8968C55.4206 63.8968 63.8968 55.4206 63.8968 45.0079C63.8968 34.5952 55.4206 26.1191 45.0079 26.1191Z" fill="#00285E"/>
<path d="M45.008 76.1826C27.8175 76.1826 13.8334 62.1985 13.8334 45.008C13.8334 27.8175 27.8175 13.8334 45.008 13.8334C62.1985 13.8334 76.1826 27.8175 76.1826 45.008C76.1667 62.1985 62.1985 76.1826 45.008 76.1826ZM45.008 14.5C28.1826 14.5 14.5159 28.1826 14.5159 45.008C14.5159 61.8175 28.1985 75.5 45.008 75.5C61.8175 75.5 75.5 61.8175 75.5 45.008C75.5 28.1826 61.8175 14.5 45.008 14.5Z" fill="#6CADDF"/>
<path d="M18.9921 44.2936L18.4683 44.4206L18.3254 43.8809L19.1985 43.627H19.6429V46.6746H18.9921V44.2936Z" fill="#6CADDF"/>
<path d="M20.4048 45.8333C20.4048 45.4524 20.5794 45.246 20.8968 45.1032C20.6588 44.9603 20.5159 44.7698 20.5159 44.4365V44.4206C20.5159 43.9603 20.9445 43.5952 21.5794 43.5952C22.2143 43.5952 22.6429 43.9603 22.6429 44.4206V44.4365C22.6429 44.7539 22.5 44.9603 22.2619 45.1032C22.5635 45.2619 22.754 45.4524 22.754 45.8174V45.8333C22.754 46.3889 22.2619 46.7222 21.5953 46.7222C20.9286 46.7222 20.4048 46.3571 20.4048 45.8333ZM22.0873 45.7857C22.0873 45.5476 21.8651 45.4047 21.5635 45.4047C21.2619 45.4047 21.0397 45.5476 21.0397 45.7698C21.0397 45.9762 21.2302 46.1508 21.5635 46.1508C21.8968 46.1508 22.0873 45.992 22.0873 45.7857ZM22.008 44.5159C22.008 44.3254 21.8492 44.1508 21.5794 44.1508C21.3095 44.1508 21.1508 44.3095 21.1508 44.5V44.5159C21.1508 44.7222 21.3254 44.8809 21.5794 44.8809C21.8334 44.8809 22.008 44.7222 22.008 44.5159Z" fill="#6CADDF"/>
<path d="M68.3254 45.4206C68.1666 45.5476 67.9762 45.627 67.7063 45.627C67.0555 45.627 66.627 45.2619 66.627 44.6587V44.6428C66.627 44.0397 67.1031 43.5793 67.7857 43.5793C68.1984 43.5793 68.4206 43.6746 68.6587 43.9127C68.8809 44.1349 69.0079 44.4524 69.0079 45.0555V45.0714C69.0079 46.0555 68.5476 46.7222 67.6904 46.7222C67.246 46.7222 66.9603 46.5793 66.6904 46.3571L67.0397 45.8492C67.2619 46.0238 67.4523 46.1032 67.7063 46.1032C68.1666 46.1032 68.2936 45.6746 68.3254 45.4206ZM68.3412 44.627C68.3412 44.3571 68.1508 44.1508 67.8174 44.1508C67.4841 44.1508 67.3095 44.3413 67.3095 44.6111V44.627C67.3095 44.8968 67.5158 45.0873 67.8333 45.0873C68.1508 45.0714 68.3412 44.8809 68.3412 44.627Z" fill="#6CADDF"/>
<path d="M71.1349 46.0079H69.6587L69.5476 45.5317L71.1984 43.6111H71.754V45.4682H72.1667V46.0079H71.754V46.6587H71.119V46.0079H71.1349ZM71.1349 45.4682V44.5317L70.3254 45.4682H71.1349Z" fill="#6CADDF"/>
<path d="M45.0079 63.8968C34.5952 63.8968 26.119 55.4206 26.119 45.0079C26.119 34.5952 34.5952 26.119 45.0079 26.119C55.4206 26.119 63.8968 34.5952 63.8968 45.0079C63.8968 55.4206 55.4206 63.8968 45.0079 63.8968ZM45.0079 26.8174C34.9762 26.8174 26.8174 34.9762 26.8174 45.0079C26.8174 55.0397 34.9762 63.1984 45.0079 63.1984C55.0397 63.1984 63.1984 55.0397 63.1984 45.0079C63.1984 34.9762 55.0397 26.8174 45.0079 26.8174Z" fill="white"/>
<path fill-rule="evenodd" clip-rule="evenodd" d="M44.6587 28.738C35.3413 28.738 29.9603 29.9603 29.9603 29.9603C29.9603 29.9603 27.8175 38.1349 29.0397 48.5952C29.5476 52.992 33.1191 62.4364 44.9603 65.6745C56.8016 62.4523 60.373 52.992 60.881 48.5952C62.1032 38.119 59.9603 29.9603 59.9603 29.9603C59.9603 29.9603 54.5794 28.738 45.2619 28.738H44.6587Z" fill="#00285E"/>
<path fill-rule="evenodd" clip-rule="evenodd" d="M59.246 46.1666C59.1349 49.3412 58.6428 58.8333 44.9444 64.0555C31.3571 58.9761 30.6428 49.1508 30.6428 46.1666H59.246Z" fill="#97C1E7"/>
<path fill-rule="evenodd" clip-rule="evenodd" d="M58.8334 45.6429C59.1984 37.7699 57.8651 31.3889 57.8651 31.3889C57.8651 31.3889 52.754 30.4048 44.9604 30.4048C37.1508 30.4048 31.9604 31.4841 31.9604 31.4841C31.9604 31.4841 30.5477 37.8968 30.9286 45.627H58.8334V45.6429Z" fill="white"/>
<path d="M45.373 63.7698L30.9127 46.2936C30.3889 49.8968 33.3095 60.5158 45.373 63.7698Z" fill="#6CADDF"/>
<path d="M35.2301 46.1825L48.6111 62.3254C49.9603 61.6746 50.9603 61.0396 51.9126 60.2777L40.2301 46.1825H35.2301Z" fill="#6CADDF"/>
<path d="M44.5159 46.1984L54.4048 58.119C55.373 57.0238 56.1984 56.0238 56.7857 54.9761L49.5159 46.1984H44.5159Z" fill="#6CADDF"/>
<path d="M59.0079 46.1984L54.0714 46.1825L58.2143 51.1825C58.9286 49.6428 59.0079 47.0555 59.0079 46.1984Z" fill="#6CADDF"/>
<path d="M50.7857 52.7381C50.7539 52.627 50.6587 52.5318 50.5476 52.4841L49.7222 52.1984C49.6428 52.1667 49.5793 52.1825 49.5 52.1984C49.4365 51.9127 49.2778 51.6587 49.0397 51.4841C49.0079 51.4683 48.9762 51.4365 48.9444 51.4206C48.8968 51.3889 48.8333 51.3572 48.7698 51.3254C48.6587 51.2778 48.5476 51.246 48.4524 51.2143C48.2143 51.1349 47.9762 51.0556 47.6746 50.8492C47.3889 50.6429 47.2619 50.4524 47.1349 50.2778C47.1032 50.2302 47.0714 50.1984 47.0397 50.1508C46.9603 50.0238 46.8492 49.9127 46.7381 49.8175C46.5317 49.6746 46.2778 49.5952 46.0238 49.5952C45.9603 49.5952 45.9127 49.6111 45.8492 49.6111C45.8492 49.6111 45.8492 49.6111 45.8492 49.5952C45.8651 49.5 45.8333 49.3889 45.7857 49.3095L45.2778 48.627C45.1984 48.5318 45.0873 48.4683 44.9603 48.4683C44.8333 48.4683 44.7222 48.5159 44.6587 48.6111L44.119 49.2937C44.0555 49.373 44.0238 49.4841 44.0397 49.5952C43.992 49.5952 43.9603 49.5794 43.9127 49.5794C43.6587 49.5794 43.4047 49.6587 43.1984 49.8016C43.1666 49.8175 43.1349 49.8492 43.119 49.8651C43.0714 49.9127 43.0238 49.9445 42.9762 50.0079C42.8968 50.1032 42.8333 50.1825 42.7698 50.2778C42.6111 50.4841 42.4841 50.6746 42.1666 50.8968C41.8809 51.1032 41.6587 51.1667 41.4524 51.2302C41.4047 51.246 41.3571 51.2619 41.3095 51.2778C41.1666 51.3095 41.0238 51.373 40.8968 51.4683C40.6428 51.6429 40.4841 51.9127 40.4206 52.2143C40.3413 52.1825 40.246 52.1825 40.1508 52.1984L39.3413 52.4683C39.2301 52.5 39.1349 52.5952 39.0873 52.7064C39.0555 52.8175 39.0714 52.9444 39.1349 53.0397L39.627 53.754C39.6905 53.8333 39.7698 53.881 39.8651 53.9127C39.7381 54.1825 39.7063 54.5159 39.8016 54.8016C39.8174 54.8333 39.8333 54.8651 39.8333 54.8968C39.8492 54.9603 39.8809 55.0238 39.9286 55.0873C39.992 55.1825 40.0555 55.2778 40.119 55.3571C40.2778 55.5635 40.4206 55.754 40.5317 56.1191C40.6428 56.4524 40.627 56.6746 40.627 56.8968C40.627 56.9445 40.627 57.0079 40.627 57.0556C40.6111 57.2143 40.627 57.3571 40.6905 57.5C40.7857 57.7857 40.992 58.0238 41.2301 58.1667C41.1984 58.2302 41.1666 58.2937 41.1825 58.3571V59.2143C41.1825 59.3413 41.246 59.4524 41.3413 59.5159C41.4365 59.5794 41.5635 59.6111 41.6746 59.5794L42.5159 59.3413C42.5952 59.3254 42.6428 59.2619 42.6905 59.2143C42.9444 59.4524 43.2936 59.5635 43.627 59.5476C43.6905 59.5476 43.7539 59.5318 43.8333 59.5159C43.9444 59.4841 44.0555 59.4524 44.1508 59.4206C44.3889 59.3413 44.627 59.2619 45.0079 59.2619C45.3571 59.2619 45.5635 59.3413 45.7857 59.4048C45.8333 59.4206 45.8809 59.4365 45.9286 59.4524C46.0714 59.5159 46.2301 59.5318 46.373 59.5318C46.6746 59.5318 46.9762 59.4048 47.1984 59.1984C47.246 59.2619 47.2936 59.2937 47.373 59.3254L48.1984 59.5794C48.3095 59.6111 48.4365 59.5952 48.5476 59.5318C48.6428 59.4683 48.7063 59.3571 48.7063 59.2302L48.7222 58.373C48.7222 58.3095 48.7063 58.246 48.6746 58.1825C48.9286 58.0397 49.1349 57.8016 49.2143 57.5159C49.2301 57.4841 49.2301 57.4524 49.246 57.4048C49.2619 57.3413 49.2778 57.2778 49.2778 57.1984C49.2936 57.0873 49.2936 56.9762 49.2936 56.8651C49.2936 56.6111 49.2936 56.373 49.4047 56.0079C49.5159 55.6746 49.6428 55.5 49.7857 55.3254C49.8174 55.2778 49.8492 55.246 49.8809 55.1984C49.9762 55.0873 50.0555 54.9445 50.1032 54.8016C50.1984 54.5 50.1666 54.1667 50.0238 53.881C50.1032 53.8492 50.1666 53.8175 50.2143 53.754L50.7222 53.0556C50.8016 52.9762 50.8333 52.8651 50.7857 52.7381Z" fill="#00285E"/>
<path d="M44.5 54.5952C44.5 54.3254 44.7222 54.119 44.9921 54.119C45.2619 54.119 45.4841 54.3412 45.4841 54.5952C45.4841 54.8651 45.2619 55.0714 44.9921 55.0714C44.7222 55.0714 44.5 54.8492 44.5 54.5952Z" fill="#FFC758"/>
<path d="M44.9762 50.5C44.8969 50.1984 44.7064 49.9444 44.4683 49.8016L44.9762 49.1508L45.4524 49.8016C45.2143 49.9603 45.0556 50.1984 44.9762 50.5ZM41.0874 53.3254C40.8334 53.1508 40.6588 52.9285 40.5635 52.6587L39.8016 52.9127L40.262 53.5793C40.4842 53.4206 40.7858 53.3254 41.0874 53.3254ZM42.5953 57.8174C42.3572 58.0079 42.0874 58.1031 41.7858 58.1031V58.9127L42.5794 58.6746C42.4842 58.4206 42.4842 58.119 42.5953 57.8174ZM47.3572 57.8333C47.4683 58.119 47.4683 58.4047 47.3731 58.6746L48.1508 58.9127L48.1667 58.1031C47.8969 58.119 47.6112 58.0238 47.3572 57.8333ZM48.8334 53.3412C49.1508 53.3254 49.4207 53.4047 49.6429 53.5793L50.1191 52.9285L49.3413 52.6587C49.2778 52.9127 49.0873 53.1666 48.8334 53.3412ZM43.9921 57.8492C43.627 57.8492 43.3413 57.5635 43.3413 57.1984C43.3413 57.1508 43.2937 57.1349 43.262 57.1666C43.0239 57.4523 42.8493 57.7063 42.8334 58.0079C42.8175 58.4523 43.1985 58.8174 43.6588 58.8174C43.6905 58.8174 43.7223 58.8174 43.7381 58.8174C43.7858 58.8174 43.8175 58.8174 43.881 58.8016C44.1985 58.7222 44.4842 58.5635 45.0239 58.5635C45.4842 58.5635 45.7223 58.6904 45.9604 58.7539C46.0556 58.7857 46.1667 58.8174 46.2778 58.8174C46.7381 58.8174 47.1032 58.4523 47.1032 58.0079C47.1032 57.6904 46.9127 57.4523 46.6747 57.1666C46.6588 57.1349 46.6112 57.1666 46.6112 57.1984C46.6112 57.5476 46.3096 57.8492 45.9604 57.8492C45.6905 57.8492 45.3413 57.6111 44.9921 57.6111C44.6905 57.6111 44.262 57.8492 43.9921 57.8492ZM43.5635 56.9603C43.5635 57.2619 43.8016 57.5 44.1032 57.5C44.135 57.5 44.1667 57.5 44.2143 57.4841C44.2302 57.4841 44.2461 57.4841 44.262 57.4682H44.2778C44.4683 57.4047 44.6429 57.3254 44.9762 57.3254C45.3096 57.3254 45.4683 57.4206 45.6588 57.4682C45.7223 57.4841 45.7858 57.5 45.8493 57.5C46.1508 57.5 46.3889 57.2619 46.3889 56.9603C46.3889 56.8809 46.3731 56.8016 46.3413 56.7381C46.3254 56.7063 46.3096 56.6746 46.2937 56.6587C46.2937 56.6587 45.3731 55.4047 45.3413 55.373C45.2937 55.3095 45.2302 55.3412 45.1985 55.3571C45.1508 55.373 45.0397 55.4047 44.9604 55.4047C44.881 55.4047 44.7858 55.3889 44.7381 55.3571C44.6747 55.3254 44.627 55.3095 44.5953 55.373C44.5635 55.4206 43.8969 56.3254 43.6905 56.6111C43.6112 56.7063 43.5635 56.8174 43.5635 56.9603ZM47.8016 56.5476C47.6905 56.8968 47.3254 57.0714 46.9762 56.9603C46.9286 56.9444 46.8969 56.9762 46.9286 57.0238C47.135 57.3254 47.3096 57.5793 47.6112 57.6904C48.0397 57.8333 48.5159 57.5952 48.6429 57.1666C48.6588 57.1349 48.6588 57.119 48.6588 57.0873C48.6747 57.0555 48.6747 57.0079 48.6905 56.9603C48.7223 56.6269 48.6429 56.3254 48.8175 55.8015C48.9604 55.373 49.1508 55.1825 49.2937 54.9762C49.3572 54.8968 49.4207 54.8016 49.4524 54.7063C49.5953 54.2777 49.3572 53.8016 48.9286 53.6746C48.627 53.5793 48.3254 53.6904 47.9762 53.8174C47.9445 53.8333 47.9445 53.865 47.9921 53.8809C48.3413 53.992 48.5318 54.3571 48.4207 54.7063C48.3413 54.9603 48.008 55.2143 47.8969 55.5476C47.8016 55.8174 47.8969 56.2777 47.8016 56.5476ZM46.8175 56.6746C47.1032 56.7698 47.4207 56.6111 47.5159 56.3254C47.5318 56.2936 47.5318 56.2619 47.5318 56.2142C47.5318 56.1984 47.5318 56.1825 47.5318 56.1666V56.1508C47.5318 55.9603 47.5 55.7539 47.5953 55.4523C47.7064 55.1349 47.8334 55.0079 47.9445 54.8492C47.9762 54.8015 48.008 54.7381 48.0397 54.6746C48.135 54.3889 47.9762 54.0873 47.6905 53.992C47.6112 53.9762 47.5318 53.9603 47.4683 53.9762C47.4366 53.9762 47.4048 53.9762 47.3731 53.992C47.3731 53.992 45.881 54.4682 45.8334 54.4841C45.7699 54.5158 45.7699 54.5793 45.7699 54.6111C45.7699 54.6587 45.754 54.7698 45.7381 54.8492C45.7223 54.9127 45.6747 55.0079 45.627 55.0555C45.5794 55.1031 45.5477 55.1508 45.5953 55.1984C45.6429 55.246 46.2778 56.1508 46.5 56.4365C46.5794 56.5476 46.6905 56.6269 46.8175 56.6746ZM47.7064 52.5158C48.008 52.7222 48.0715 53.1349 47.8493 53.4206C47.8175 53.4523 47.8493 53.5 47.8969 53.4841C48.262 53.3889 48.5477 53.2936 48.7381 53.0396C49.008 52.6746 48.9286 52.1666 48.5635 51.8968C48.5477 51.8809 48.5159 51.865 48.4842 51.8492C48.4524 51.8174 48.4207 51.8016 48.3572 51.7857C48.0556 51.6587 47.7381 51.6269 47.2937 51.3095C46.9286 51.0396 46.8016 50.8016 46.6429 50.5952C46.5953 50.5158 46.5159 50.4365 46.4207 50.3571C46.0556 50.0873 45.5318 50.1666 45.2778 50.5317C45.1032 50.7857 45.1032 51.1031 45.1191 51.4682C45.1191 51.5 45.1667 51.5158 45.1826 51.4682C45.3889 51.1825 45.8016 51.119 46.1032 51.3254C46.3254 51.4841 46.4683 51.8809 46.754 52.0714C47.008 52.3095 47.4842 52.3571 47.7064 52.5158ZM47.5318 53.5C47.7064 53.2619 47.6588 52.9127 47.4048 52.7381C47.3889 52.7222 47.3572 52.6904 47.3096 52.6746C47.2937 52.6746 47.2778 52.6587 47.262 52.6587H47.2461C47.0556 52.5952 46.8651 52.5635 46.5953 52.373C46.3254 52.1825 46.2461 52.0079 46.135 51.865C46.1032 51.8174 46.0556 51.7698 46.008 51.7222C45.7699 51.5476 45.4207 51.5952 45.2461 51.8492C45.1985 51.9127 45.1667 51.9762 45.1508 52.0555C45.1508 52.0873 45.135 52.119 45.135 52.1508C45.135 52.1508 45.135 53.7063 45.135 53.7539C45.135 53.8333 45.1985 53.8333 45.2461 53.8492C45.2937 53.865 45.4048 53.9127 45.4524 53.9444C45.5159 53.992 45.5794 54.0555 45.6112 54.1031C45.6429 54.1508 45.6747 54.1984 45.7381 54.1666C45.8016 54.1349 46.8651 53.8016 47.1985 53.6904C47.3413 53.6746 47.4524 53.5952 47.5318 53.5ZM43.8334 51.373C44.1191 51.1666 44.5318 51.2301 44.754 51.5158C44.7858 51.5476 44.8334 51.5476 44.8334 51.5C44.8493 51.1349 44.8493 50.8174 44.6747 50.5635C44.4207 50.1984 43.8969 50.119 43.5318 50.3889C43.5 50.4047 43.4842 50.4206 43.4683 50.4365C43.4366 50.4523 43.4048 50.4841 43.3731 50.5317C43.1508 50.7857 43.0239 51.0714 42.5794 51.3889C42.2143 51.6587 41.9445 51.7063 41.7064 51.7698C41.6112 51.8016 41.5 51.8333 41.4207 51.8968C41.0556 52.1666 40.9604 52.6746 41.2461 53.0396C41.4366 53.2936 41.7381 53.3889 42.0873 53.4841C42.1191 53.5 42.135 53.4523 42.1191 53.4206C41.9127 53.1349 41.9762 52.7222 42.262 52.5158C42.4842 52.3571 42.8969 52.3412 43.1826 52.1349C43.4048 51.9762 43.6112 51.5317 43.8334 51.373ZM44.7223 51.8492C44.5477 51.6111 44.1985 51.5476 43.9604 51.7222C43.9286 51.7381 43.9127 51.7539 43.881 51.7857C43.8651 51.8016 43.8651 51.8016 43.8493 51.8174L43.8334 51.8333C43.7223 51.992 43.627 52.1666 43.3572 52.3571C43.0873 52.5476 42.8969 52.5635 42.7223 52.6428C42.6588 52.6587 42.5953 52.6904 42.5477 52.7222C42.3096 52.8968 42.2461 53.2301 42.4207 53.4841C42.4683 53.5476 42.5318 53.5952 42.5953 53.6269C42.627 53.6428 42.6429 53.6587 42.6747 53.6587C42.6747 53.6587 44.1667 54.1349 44.2143 54.1508C44.2937 54.1666 44.3254 54.119 44.3413 54.0873C44.3731 54.0555 44.4366 53.9603 44.5 53.9127C44.5635 53.865 44.6429 53.8333 44.7064 53.8174C44.7699 53.8015 44.8175 53.7857 44.8175 53.7222C44.8175 53.6587 44.8175 52.5476 44.8175 52.1984C44.8334 52.0873 44.8016 51.9603 44.7223 51.8492ZM41.5477 54.6904C41.4366 54.3412 41.627 53.9762 41.9604 53.865C42.008 53.8492 42.008 53.8016 41.9762 53.7857C41.627 53.6587 41.3254 53.5476 41.0397 53.6428C40.6112 53.7698 40.3731 54.246 40.5159 54.6746C40.5159 54.7063 40.5318 54.7222 40.5477 54.7539C40.5635 54.7857 40.5794 54.8333 40.6112 54.8809C40.7858 55.1666 41.0239 55.373 41.1985 55.8968C41.3413 56.3254 41.2937 56.5952 41.2937 56.8492C41.2778 56.9444 41.2937 57.0555 41.3254 57.1666C41.4683 57.5952 41.9286 57.8333 42.3572 57.6904C42.6588 57.5952 42.8334 57.3412 43.0397 57.0238C43.0556 56.992 43.0239 56.9603 42.9921 56.9762C42.6429 57.0873 42.2778 56.8968 42.1667 56.5635C42.0873 56.3095 42.1985 55.9127 42.0873 55.5793C41.9921 55.2777 41.627 54.9444 41.5477 54.6904ZM42.262 54.0079C41.9762 54.1031 41.8175 54.4047 41.9127 54.6904C41.9127 54.7222 41.9286 54.7539 41.9604 54.7857C41.9762 54.8016 41.9762 54.8174 41.9921 54.8174C41.9921 54.8174 41.9921 54.8333 42.008 54.8333C42.1191 54.992 42.262 55.1349 42.3731 55.4365C42.4842 55.7539 42.4366 55.9285 42.4524 56.119C42.4524 56.1825 42.4524 56.246 42.4842 56.3095C42.5794 56.5952 42.881 56.7539 43.1667 56.6587C43.2461 56.6428 43.3096 56.5952 43.3572 56.5476C43.3731 56.5317 43.4048 56.5 43.4207 56.4841C43.4207 56.4841 44.3413 55.2301 44.3572 55.1825C44.4048 55.119 44.3572 55.0714 44.3254 55.0396C44.2937 55.0079 44.2302 54.9127 44.2143 54.8333C44.1985 54.7698 44.1826 54.6746 44.1826 54.6111C44.1826 54.5476 44.1826 54.5 44.1191 54.4841C44.0556 54.4682 42.9921 54.119 42.6588 54.0079C42.5318 53.9762 42.4048 53.9603 42.262 54.0079Z" fill="#EE3124"/>
<path d="M49.5476 37.8016L52.8968 36.6428C52.8968 36.6428 52.6111 38.0396 52.6905 39.119C52.7857 40.5158 53.5952 41.5793 53.5952 41.5793L49.4683 43.0079L49.5476 37.8016Z" fill="#FFC758"/>
<path d="M53.5952 41.5794C53.5952 41.5794 52.8651 40.5317 52.7381 39.3095C52.6428 38.3889 52.7381 37.5952 52.8968 36.6429C52.754 37.2778 52.2143 39.0714 50.7063 40.7381C50.1032 41.4048 49.8333 41.9921 49.7222 42.4048L49.6587 34.5159C49.6587 34.5159 48.8651 34.8016 48.7857 34.8175C48.6905 34.8492 48.6428 34.9127 48.6428 34.9286C48.6428 34.9762 48.6111 35.0079 48.5476 35.0238C48.4841 35.0397 48.0238 35.2143 47.7063 35.3095C47.6428 35.3254 47.6746 35.3889 47.7063 35.3889C48.0873 35.373 48.627 35.3254 48.6746 35.3254C48.754 35.3095 48.7857 35.2778 48.7857 35.2302C48.7857 35.2302 48.7857 35.2302 48.7857 35.2143C48.8016 35.1508 48.8492 35.1032 48.9127 35.1032C48.9603 35.1032 49.246 35.0714 49.4206 35.0397L49.3413 43.5317H49.7222V42.9286L53.5952 41.5794Z" fill="#D4A11E"/>
<path d="M38.754 43.2301C38.754 43.2301 38.1349 42.7698 37.9603 41.8968C37.7857 41.0079 38.2302 40.5 38.2302 40.5L42.2937 39.1031C42.2937 39.1031 42.0397 39.9127 42.2778 40.8333C42.5794 41.992 43.1984 42.7698 43.1984 42.7698C43.1984 42.7698 41.7064 42.4841 40.2619 42.6746C38.8968 42.8492 38.754 43.2301 38.754 43.2301Z" fill="#FFC758"/>
<path d="M34.0873 42.2143C34.0873 42.2143 34.5952 40.8334 36.0714 39.3254C37.1984 38.1826 37.9285 37.8492 37.9285 37.8492C37.9285 37.8492 37.2778 38.7858 37.0079 40.3254C36.8333 41.2778 37.0238 42.4842 37.0238 42.4842C37.0238 42.4842 36.2619 42.3254 35.3889 42.2302C34.6587 42.1508 34.0873 42.2143 34.0873 42.2143Z" fill="#FFC758"/>
<path d="M37.9286 37.8492C37.9286 37.8492 37.2937 38.7858 37.0238 40.3254C36.8492 41.2778 37.0397 42.4842 37.0397 42.4842C37.0397 42.4842 36.8492 42.4365 36.4048 42.3413C34.5953 41.9286 37.9286 37.8492 37.9286 37.8492Z" fill="#D4A11E"/>
<path d="M40.3095 38.9604L40.2777 35.3096C40.1984 35.3413 39.4841 35.5794 39.4047 35.6112C39.3095 35.6429 39.2619 35.7064 39.2619 35.7381C39.2619 35.7858 39.2301 35.8175 39.1666 35.8334C39.1031 35.8493 38.6428 36.008 38.3254 36.1191C38.2619 36.135 38.2936 36.1985 38.3254 36.1985C38.6904 36.1826 39.246 36.135 39.2936 36.135C39.373 36.1191 39.4047 36.0873 39.4206 36.0397C39.4206 36.0397 39.4206 36.0397 39.4206 36.0239C39.4365 35.9604 39.4841 35.9127 39.5476 35.9127C39.5952 35.9127 39.865 35.881 40.0555 35.8651L40.0238 38.9762H40.3095V38.9604Z" fill="#D4A11E"/>
<path d="M45.0396 35.6587H45.3253V32.1508C45.3253 32.1508 44.5317 32.4365 44.4523 32.4523C44.3571 32.4841 44.3095 32.5476 44.3095 32.5635C44.3095 32.6111 44.2777 32.6428 44.2142 32.6587C44.1507 32.6746 43.6904 32.8333 43.373 32.9444C43.3095 32.9603 43.3412 33.0238 43.373 33.0238C43.7539 33.0079 44.2936 32.9603 44.3412 32.9603C44.4206 32.9444 44.4523 32.9127 44.4682 32.865C44.4841 32.8016 44.5317 32.7539 44.5952 32.7539C44.6428 32.7539 44.8968 32.7222 45.0872 32.7063L45.0396 35.6587Z" fill="#D4A11E"/>
<path d="M44.3253 32.9762H44.3412C44.4206 32.9603 44.4523 32.9286 44.4523 32.881C44.4523 32.8333 44.4841 32.8016 44.5317 32.7857L44.4365 32.4841C44.3412 32.5159 44.3095 32.5794 44.3095 32.5952C44.3095 32.6429 44.2777 32.6587 44.2301 32.6746L44.3253 32.9762Z" fill="#FFC758"/>
<path d="M39.2777 36.119H39.2936C39.373 36.1031 39.4047 36.0714 39.4047 36.0238C39.4206 35.9762 39.4365 35.9444 39.4841 35.9285L39.3888 35.627C39.2936 35.6587 39.2619 35.7222 39.2619 35.7381C39.2619 35.7857 39.2301 35.8016 39.1825 35.8174L39.2777 36.119Z" fill="#FFC758"/>
<path d="M48.6428 35.3254H48.6587C48.7381 35.3096 48.7698 35.2778 48.7698 35.2302C48.7857 35.1826 48.8016 35.1508 48.8492 35.135L48.754 34.8334C48.6587 34.8651 48.627 34.9286 48.627 34.9445C48.627 34.9921 48.5952 35.008 48.5476 35.0238L48.6428 35.3254Z" fill="#FFC758"/>
<path d="M43.1984 42.7698C43.1984 42.7698 42.5476 41.8174 42.2937 40.8016C42.0714 39.9285 42.2937 39.1031 42.2937 39.1031C42.2937 39.1031 41.8651 40.5952 40.8333 41.4047C40.119 41.9762 38.3571 42.5 38.7698 43.2301C38.8333 43.1349 39.0079 42.9444 39.7222 42.7698C39.8016 42.7539 39.8968 42.7381 39.9921 42.7222V43.9285H40.373V42.6746C41.6905 42.5317 43.1984 42.7698 43.1984 42.7698Z" fill="#D4A11E"/>
<path d="M38.3254 40.246C38.3254 40.246 37.8492 39.9603 37.9127 39.0397C37.9762 38.0873 38.4524 37.6746 38.4524 37.6428L41.6111 36.5635C41.6111 36.5635 41.373 37.0397 41.5476 37.754C41.7381 38.6111 42.2936 39.1032 42.2936 39.1032C42.2936 39.1032 40.7063 39.119 39.2778 39.6111C38.5794 39.8492 38.3254 40.246 38.3254 40.246Z" fill="#FFC758"/>
<path d="M40.1984 38.2619C41.1032 37.5159 41.5953 36.5635 41.5953 36.5635C41.5953 36.5635 41.4683 37.1667 41.5635 37.7063C41.7381 38.627 42.2778 39.1032 42.2778 39.1032C42.2778 39.1032 40.9921 39.119 39.6111 39.5159C38.6905 39.7698 38.4048 40.1349 38.3254 40.2619C38.0238 39.5635 39.2778 39.0238 40.1984 38.2619Z" fill="#D4A11E"/>
<path d="M43.8016 43.4682C43.8016 43.4682 42.9286 42.8174 42.7223 41.5952C42.5477 40.6269 43.1985 39.9285 43.1985 39.9285L48.135 38.2301C48.135 38.2301 47.8651 39.3253 48.1191 40.373C48.4048 41.5476 49.4842 43.0079 49.4842 43.0079C49.4842 43.0079 47.4365 42.4206 45.6588 42.6428C43.9604 42.865 43.8016 43.4682 43.8016 43.4682Z" fill="#FFC758"/>
<path d="M42.8016 35.6429C42.7698 34.8968 43.2936 34.2936 43.3095 34.2619L46.8492 33.0238C46.8492 33.0238 46.6111 33.5794 46.6746 34.0555C46.7857 34.9603 47.2936 35.4365 47.2936 35.4365C47.2936 35.4365 45.8968 35.3571 44.2619 35.9286C43.3571 36.246 43.2619 36.6746 43.2619 36.6746C43.2619 36.6746 42.8333 36.5635 42.8016 35.6429Z" fill="#FFC758"/>
<path d="M45.5953 34.6905C46.2302 34.1349 46.8492 33.0397 46.8492 33.0397C46.8492 33.0397 46.6111 33.5952 46.6746 34.0714C46.7857 34.9762 47.2937 35.4524 47.2937 35.4524C47.2937 35.4524 45.7857 35.4365 44.3413 35.9444C43.7223 36.1667 43.3254 36.5 43.2778 36.6905C43.0715 35.9921 44.7223 35.4524 45.5953 34.6905Z" fill="#D4A11E"/>
<path d="M43.3096 39.7222C43.3096 39.7222 42.8016 39.1349 42.7064 38.2143C42.6112 37.2619 43.1667 36.881 43.2143 36.8492L47.3096 35.4365C47.3096 35.4365 47.1985 35.7381 47.2937 36.5635C47.3889 37.2619 48.0715 38.2143 48.0715 38.2143C48.0715 38.2143 45.881 38.2778 44.5318 38.8016C43.6746 39.1349 43.3096 39.7222 43.3096 39.7222Z" fill="#FFC758"/>
<path d="M46.0238 37.3572C46.9127 36.5952 47.3095 35.4524 47.3095 35.4524C47.3095 35.4524 47.1984 36.1032 47.3095 36.6111C47.5159 37.5 48.1508 38.246 48.1508 38.246C48.1508 38.246 46.246 38.2778 44.8651 38.7381C43.9603 39.0397 43.4048 39.5794 43.3254 39.7381C43.119 38.9603 45.1349 38.1191 46.0238 37.3572Z" fill="#D4A11E"/>
<path d="M49.5634 43.0874C49.5634 43.0874 48.4523 41.6429 48.119 40.3731C47.9126 39.5318 48.0714 38.5794 48.1349 38.2461C48.0079 38.6905 47.5634 40.135 46.4682 41.1509C45.4206 42.1191 43.3571 42.5794 43.8015 43.4842C43.8809 43.3413 44.119 42.9921 44.9603 42.7858L44.9444 43.9445H45.3412V42.7064C47.1666 42.4207 49.5634 43.0874 49.5634 43.0874Z" fill="#D4A11E"/>
<path fill-rule="evenodd" clip-rule="evenodd" d="M51.4682 45.8016C51.7222 45.754 51.9761 45.6905 52.3571 45.5953C52.3412 45.5794 52.3095 45.5635 52.2936 45.5476C51.8809 45.0873 51.9444 44.5953 52.1984 44.3572C53.119 43.5 53.1031 42.8651 53.1031 42.8651C53.1031 42.8651 50.865 43.3254 47.9127 43.4842C47.7222 43.5 47.0396 43.8016 46.8333 43.8016C46.4206 43.8175 46.0079 43.8334 45.5793 43.8334C40.0079 43.881 38.4523 43.4842 36.6269 43.1508C34.7698 42.8016 33.9603 42.4365 33.9603 42.4365L33.8968 42.627C33.8968 42.627 35.3571 43.1984 36.4047 43.7064C36.6269 43.8175 37.5 45.1191 37.7857 45.5635H31.1666C30.8015 37.9762 32.2619 31.7699 32.2619 31.7699C32.2619 31.7699 37.3253 30.6905 44.9444 30.6905V29.881C36.865 29.881 31.4841 31.0238 31.4841 31.0238C31.4841 31.0238 29.1349 39.3096 30.373 49.1826C30.8968 53.2937 34.2936 60.9921 44.9126 64.5635L45.373 63.9127L44.9126 63.2619C34.9126 59.9127 31.992 53.135 31.4841 49.2778C31.373 48.4207 31.2936 47.5635 31.2301 46.7381H44.9603V45.5794H37.9127C38.0714 45.0715 38.5634 44.9445 39.1825 45.0873C39.8174 45.2461 40.4523 45.4048 41.0555 45.373C42.5634 45.2937 42.3412 44.8969 42.4841 44.8969C44.0396 44.9921 44.6269 45.373 45.9761 45.3413C47.2142 45.3254 47.6428 44.9921 47.7539 44.9921C49.2619 44.9762 49.8333 45.6746 51.3412 45.8016C51.3888 45.8016 51.4365 45.8016 51.4682 45.8016Z" fill="#FFC758"/>
<path fill-rule="evenodd" clip-rule="evenodd" d="M58.3889 31.0238C58.3889 31.0238 53.0238 29.881 44.9445 29.881V30.6905C52.5635 30.6905 57.6111 31.7699 57.6111 31.7699C57.6111 31.7699 59.0873 37.9762 58.7064 45.5635H52.0715C51.5477 45.0556 51.8492 44.3889 52.0238 44.2302C52.8016 43.5318 52.8016 43.0556 52.8016 43.0556C52.8016 43.0556 51.008 43.5 48.0556 43.627C47.8651 43.627 47.0397 44.008 46.8334 44.008C46.4207 44.0238 45.8492 44.0397 45.4207 44.0397C41.5794 44.0397 39.6905 43.9603 36.3572 43.2461C36.4207 43.3254 36.4524 43.3572 36.5159 43.4524C36.5318 43.4842 37.9762 43.8492 37.9921 43.881C38.2143 44.1826 38.5 44.3889 38.8492 44.5794C39.3889 44.8651 40.1826 45.1032 40.8334 45.1508C42.3413 45.2461 42.0556 44.6746 42.1984 44.6746C43.7381 44.6429 44.7381 45.1984 46.0873 45.1826C47.3254 45.1667 47.3572 44.7699 47.4842 44.7699C48.7064 44.7064 49.9445 45.2302 51.008 45.5794H44.9445V46.7381H58.627C58.5635 47.5794 58.4842 48.4207 58.3731 49.2778C57.8651 53.1508 54.9445 59.9127 44.9445 63.2619V64.5635C55.5635 60.9921 58.9762 53.3096 59.4842 49.1826C60.7381 39.3096 58.3889 31.0238 58.3889 31.0238Z" fill="#D4A11E"/>
<path d="M20.1508 34.5952L20.7063 33.5317L23.2142 33.3571L21.9444 31.1825L22.5 30.1349L26.9603 32.4841L26.4523 33.4523L23.5317 31.9285L24.7857 34.1825L24.7698 34.1984L22.2301 34.4523L25.119 35.9762L24.6111 36.9444L20.1508 34.5952Z" fill="#00285E"/>
<path d="M25.246 26.6588L25.9444 25.9127L31.119 27.8175L30.3253 28.6588L29.1825 28.2143L27.7222 29.7699L28.2301 30.881L27.4523 31.7064L25.246 26.6588ZM28.2142 27.8492L26.5634 27.2143L27.2936 28.8175L28.2142 27.8492Z" fill="#00285E"/>
<path d="M29.246 22.992L30.119 22.4682L33.7539 23.8968L32.1507 21.246L33.0872 20.6746L35.6904 24.9761L34.8809 25.4682L31.1349 23.992L32.8015 26.7381L31.865 27.3095L29.246 22.992Z" fill="#00285E"/>
<path d="M36.0238 22.119C35.6269 20.7222 36.3253 19.2936 37.8174 18.8651C38.7222 18.5952 39.373 18.754 39.9444 19.0555L39.4841 20.0397C39.0079 19.8016 38.5793 19.7063 38.0873 19.8492C37.2777 20.0873 36.8809 20.9286 37.119 21.7698V21.7857C37.3571 22.6111 38.1349 23.1349 38.9603 22.8968C39.5158 22.7381 39.7857 22.4206 40.0714 21.9603L40.9444 22.4524C40.5952 23.1349 40.1349 23.627 39.2142 23.8968C37.8015 24.3095 36.4206 23.5159 36.0238 22.119Z" fill="#00285E"/>
<path d="M42.0714 18.0714L43.1666 18.0397L43.2301 20.0397L45.2619 19.9921L45.2143 17.9921L46.3254 17.9603L46.4524 23.0079L45.3413 23.0397L45.2936 21.0079L43.246 21.0714L43.3095 23.0873L42.1984 23.1191L42.0714 18.0714Z" fill="#00285E"/>
<path d="M52.8491 23.6905L53.7698 23.246C54.0237 23.7698 54.3571 24.1984 54.8809 24.4365C55.2936 24.627 55.611 24.5794 55.738 24.3095V24.2936C55.865 24.0397 55.7539 23.8333 55.0872 23.2936C54.2777 22.627 53.8015 22.1032 54.2142 21.1984V21.1825C54.5952 20.3571 55.5158 20.119 56.4523 20.5476C57.119 20.8492 57.5952 21.3254 57.8809 21.9127L57.0079 22.4365C56.738 21.9603 56.4047 21.6111 56.0237 21.4365C55.6428 21.2619 55.3571 21.3413 55.2459 21.5635V21.5793C55.1031 21.8809 55.2618 22.0714 55.9602 22.6428C56.7698 23.3095 57.1507 23.8968 56.7698 24.6905V24.7063C56.3571 25.6111 55.4206 25.8016 54.4364 25.3571C53.7698 25.0079 53.1825 24.4365 52.8491 23.6905Z" fill="#00285E"/>
<path d="M60.2142 23.9921L58.992 23.0556L59.611 22.2461L62.9285 24.7699L62.3095 25.5953L61.0872 24.6588L58.6587 27.8493L57.7698 27.1826L60.2142 23.9921Z" fill="#00285E"/>
<path d="M68.1825 31.1508L69.2142 33.2142C69.5 33.7857 69.5635 34.3095 69.4206 34.7539C69.2936 35.1349 69.0079 35.4365 68.5793 35.6587H68.5635C67.8333 36.0238 67.1825 35.865 66.6746 35.3889L65.6111 37.2936L65.0238 36.1349L65.9762 34.4365L65.5793 33.6587L64.1349 34.3889L63.6428 33.4047L68.1825 31.1508ZM66.992 34.246C67.2301 34.7222 67.6269 34.8809 68.0079 34.6904H68.0238C68.4523 34.4841 68.5158 34.0714 68.2777 33.5952L67.7857 32.6111L66.5 33.2619L66.992 34.246Z" fill="#00285E"/>
<path d="M49.4841 21.4524L51.3413 21.8493L51.8651 20.9604L49.7064 20.4842L49.9127 19.4842L52.5476 20.0556L52.7698 19.1032L49.0397 18.2937L47.9762 23.2143L51.7381 24.0397L51.9445 23.0715L49.2619 22.4842L49.4841 21.4524Z" fill="#00285E"/>
<path d="M64.4524 26.2778L60.5793 29.5159L63.0555 32.4524L63.8016 31.8175L62.0555 29.7223L62.8651 29.0397L64.1032 30.5159L65.1032 30.1826L63.627 28.4048L64.4047 27.754L66.1349 29.8175L66.8968 29.1826L64.4524 26.2778Z" fill="#00285E"/>
<path d="M36.4524 69.2619C36.4524 67.7857 37.5476 66.5952 39.1349 66.5952C40.1032 66.5952 40.6746 66.9127 41.1667 67.3889L40.4524 68.2143C40.0556 67.8492 39.6587 67.6428 39.1349 67.6428C38.2619 67.6428 37.6429 68.3571 37.6429 69.246V69.2619C37.6429 70.1349 38.246 70.8809 39.1349 70.8809C39.7222 70.8809 40.0873 70.6428 40.4841 70.2778L41.1984 71.0079C40.6746 71.5793 40.0873 71.9285 39.0873 71.9285C37.5794 71.8968 36.4524 70.7222 36.4524 69.2619Z" fill="#00285E"/>
<path d="M42.2937 66.6746H43.4207V71.8015H42.2937V66.6746Z" fill="#00285E"/>
<path d="M46.0397 67.7222H44.4841V66.6746H48.7381V67.7222H47.1825V71.8174H46.0556V67.7222H46.0397Z" fill="#00285E"/>
<path d="M51.1826 69.7857L49.2144 66.6746H50.5318L51.754 68.7381L52.9921 66.6746H54.2778L52.3096 69.7539V71.8015H51.1826V69.7857Z" fill="#00285E"/>
</g>
<defs>
<clipPath id="clip0_8_779">
<rect width="65" height="65" fill="white" transform="translate(12.5 12.5)"/>
</clipPath>
</defs>
</svg>
