<svg width="91" height="90" viewBox="0 0 91 90" fill="none" xmlns="http://www.w3.org/2000/svg">
<rect x="0.666626" width="90" height="90" rx="45" fill="#EAEAEA"/>
<g clip-path="url(#clip0_8_852)">
<path fill-rule="evenodd" clip-rule="evenodd" d="M45.6674 70.824C46.6068 70.1716 47.7761 69.4072 49.1383 68.6091C50.8621 67.5993 52.948 66.5029 55.3695 65.4491C56.9541 64.7596 58.2735 64.1052 59.3729 63.469C60.4358 62.8538 61.2884 62.256 61.9744 61.6595C62.5369 61.1704 62.9778 60.677 63.3315 60.1669C63.6861 59.6557 63.9494 59.1373 64.1567 58.596C65.1112 56.1066 64.9923 51.9232 64.9779 51.5055L64.961 22.5789H26.3739L26.357 51.5055C26.3427 51.9232 26.2237 56.1066 27.1782 58.596C27.3857 59.1372 27.649 59.6558 28.0034 60.1669C28.3571 60.677 28.7982 61.1706 29.3605 61.6595C30.0465 62.256 30.8989 62.8538 31.9622 63.469C33.0614 64.1052 34.3806 64.7595 35.9654 65.4491C38.3871 66.5029 40.4728 67.5993 42.1967 68.6091C43.5588 69.407 44.7283 70.1718 45.6674 70.824ZM42.7553 26.9867C42.3265 26.9867 41.9791 27.3353 41.9791 27.7654C41.9791 28.1956 42.3265 28.5442 42.7553 28.5442C43.1841 28.5442 43.5316 28.1956 43.5316 27.7654C43.5316 27.3353 43.1841 26.9867 42.7553 26.9867ZM44.0113 27.2517C44.0242 27.2778 44.044 27.9421 44.044 27.9421L45.8473 27.2092C45.8473 27.2092 45.9028 27.121 45.8669 27.0752C45.8309 27.0294 45.7755 27.0491 45.7755 27.0491L44.0113 27.2517ZM42.7553 27.3989C42.5535 27.3989 42.3899 27.563 42.3899 27.7654C42.3899 27.9679 42.5535 28.132 42.7553 28.132C42.9571 28.132 43.1207 27.9679 43.1207 27.7654C43.1207 27.563 42.9571 27.3989 42.7553 27.3989Z" fill="white"/>
<path fill-rule="evenodd" clip-rule="evenodd" d="M57.3238 70.0961C50.9385 72.875 47.1966 76.0888 47.1266 76.1489C46.6706 76.5935 46.0346 77.0764 45.5354 77.5L44.1021 76.062C43.6893 75.7203 42.0905 74.4414 39.4898 72.9C37.9679 71.9981 36.1234 71.0164 34.009 70.0961C32.204 69.3107 30.6925 68.5561 29.4215 67.8128C28.1142 67.048 27.0371 66.2843 26.1384 65.5027C25.1821 64.671 24.4272 63.8213 23.816 62.9338C23.2065 62.0485 22.7428 61.1259 22.367 60.1452C21.8893 58.8989 21.5986 57.4591 21.424 56.0918C21.1542 53.9791 21.1574 52.0217 21.1714 51.2706V12.5H70.1614V51.2706C70.1754 52.0217 70.1786 53.9791 69.9087 56.0918C69.7341 57.4591 69.4435 58.8989 68.9658 60.1452C68.5901 61.1259 68.1263 62.0483 67.5169 62.9338C66.9057 63.8213 66.1508 64.671 65.1944 65.5027C64.2957 66.2843 63.2186 67.048 61.9113 67.8128C60.6405 68.5561 59.1287 69.3107 57.3238 70.0961ZM45.6664 75.8517C45.6664 75.8517 49.8592 72.2267 56.9557 69.1382C64.0523 66.0497 66.5913 63.4331 67.8959 60.0306C69.2005 56.6281 68.9831 51.3133 68.9831 51.3133V13.5279H22.3496V51.3133C22.3496 51.3133 22.1322 56.6281 23.4369 60.0306C24.7415 63.4331 27.2805 66.0497 34.3771 69.1382C41.4728 72.2263 45.6654 75.8509 45.6664 75.8517Z" fill="white"/>
<path fill-rule="evenodd" clip-rule="evenodd" d="M39.0833 19.4152H37.8775L38.371 18.2289L38.3776 18.2132L38.8539 17.0684L38.8711 17.0269L39.2922 16.015L39.4565 15.6198L39.4799 15.5637C39.5194 15.4878 39.6169 15.3623 39.8286 15.3623H41.1582L40.971 15.812L41.0556 16.015L41.4765 17.0269L41.4937 17.0684L41.97 18.2132L41.9767 18.2289L42.4702 19.4152H41.2644L41.0261 18.8423H39.3216L39.0833 19.4152ZM53.689 15.3623H54.1098H54.777L56.3452 17.538V16.3376V15.4983C56.3469 15.4244 56.4071 15.3642 56.4806 15.3623H56.9014H57.5686V18.4399V19.2792C57.5669 19.3531 57.5068 19.4133 57.4333 19.4152H57.0125H56.3452L54.777 17.2395V18.4399V19.2792C54.7753 19.3531 54.7152 19.4133 54.6417 19.4152H54.2209H53.5536V16.3376V15.4983C53.5553 15.4244 53.6155 15.3642 53.689 15.3623ZM43.8076 15.3623H43.873H44.892H45.7644H45.7968C46.6319 15.3796 47.3035 16.0643 47.3035 16.9063C47.3035 17.7483 46.6319 18.4327 45.7968 18.45H45.791L45.7644 18.4503L45.738 18.45H44.892V19.4152H43.6686V15.5019C43.6686 15.425 43.7311 15.3623 43.8076 15.3623ZM44.892 16.2781V17.5345H45.4027H45.4136H45.4243H45.4265C45.7663 17.5274 46.0396 17.249 46.0396 16.9063C46.0396 16.5636 45.7663 16.2852 45.4265 16.2781H45.4134H44.892ZM49.0497 19.4152H47.8439L48.3374 18.2289L48.344 18.2132L48.8204 17.0684L48.8376 17.0269L49.2586 16.015L49.4228 15.6198L49.4464 15.5637C49.4858 15.4878 49.5833 15.3623 49.795 15.3623H51.1246L50.9375 15.812L51.022 16.015L51.443 17.0269L51.4602 17.0684L51.9365 18.2132L51.9431 18.2289L52.4366 19.4152H51.2307L50.9925 18.8423H49.288L49.0497 19.4152ZM50.1402 16.7941L50.0434 17.0269L50.0262 17.0684L49.6389 17.9992H50.6417L50.2543 17.0684L50.2371 17.0269L50.1402 16.7941ZM36.537 18.8767C36.239 19.1963 35.6296 19.4152 34.9259 19.4152C34.435 19.4152 33.9902 19.3086 33.6647 19.1358L34.0424 18.2077C34.2948 18.3281 34.6062 18.4331 34.9259 18.4331C35.6769 18.4331 35.6299 17.8583 35.6299 17.8583V17.5285V16.296H34.7725L35.161 15.3623H35.6299H36.0978H36.5932C36.7362 15.3623 36.853 15.4595 36.853 15.5782V17.8583C36.853 18.6919 36.537 18.8767 36.537 18.8767ZM40.1738 16.7941L40.0769 17.0269L40.0598 17.0684L39.6724 17.9992H40.6752L40.2879 17.0684L40.2707 17.0269L40.1738 16.7941Z" fill="white"/>
<path fill-rule="evenodd" clip-rule="evenodd" d="M42.7552 26.9867C42.3264 26.9867 41.979 27.3352 41.979 27.7654C41.979 28.1956 42.3264 28.5442 42.7552 28.5442C43.1841 28.5442 43.5315 28.1956 43.5315 27.7654C43.5315 27.3352 43.1841 26.9867 42.7552 26.9867ZM44.0113 27.2516C44.0242 27.2778 44.0439 27.9421 44.0439 27.9421L45.8472 27.2092C45.8472 27.2092 45.9027 27.1209 45.8668 27.0751C45.8308 27.0294 45.7754 27.0491 45.7754 27.0491L44.0113 27.2516ZM42.7552 27.3988C42.5534 27.3988 42.3898 27.563 42.3898 27.7654C42.3898 27.9679 42.5534 28.132 42.7552 28.132C42.957 28.132 43.1206 27.9679 43.1206 27.7654C43.1206 27.563 42.957 27.3988 42.7552 27.3988Z" fill="white"/>
<path fill-rule="evenodd" clip-rule="evenodd" d="M33.8464 46.0383C34.9363 46.0383 35.9815 46.4728 36.7521 47.246C37.5227 48.0193 37.9557 49.0681 37.9557 50.1616C37.9557 50.9772 37.7146 51.7744 37.2631 52.4524C36.8116 53.1305 36.1698 53.659 35.419 53.9711C34.6681 54.2832 33.8419 54.3648 33.0447 54.2057C32.2476 54.0466 31.5154 53.6539 30.9408 53.0773C30.3661 52.5006 29.9747 51.7659 29.8161 50.9661C29.6576 50.1662 29.739 49.3372 30.05 48.5837C30.361 47.8303 30.8877 47.1863 31.5634 46.7332C32.2392 46.2802 33.0337 46.0383 33.8464 46.0383Z" fill="#E30016"/>
<path fill-rule="evenodd" clip-rule="evenodd" d="M39.8036 23.7659V65.9506C39.8036 65.9506 41.0737 66.5889 42.867 67.6278C44.6603 68.6668 45.6656 69.3917 45.6656 69.3917C45.6656 69.3917 46.8555 68.5708 48.4411 67.6522C50.0267 66.7336 51.4396 65.9982 51.4396 65.9982V46.5173L50.2209 45.1629H51.3819L51.4396 45.2265V39.7036L51.1453 39.7039L50.3312 38.8011L51.4396 38.8013V36.2726L49.0764 36.2738L49.6447 35.3709L51.4396 35.3709V32.8436L51.2357 32.8434L51.4396 32.5195V23.766L39.8036 23.7659Z" fill="#E30016"/>
<path fill-rule="evenodd" clip-rule="evenodd" d="M45.6666 72.2708C47.6422 70.8476 51.1467 68.5745 55.8355 66.534C59.0941 65.1161 61.2698 63.838 62.7455 62.5543C64.0363 61.4317 64.7668 60.2945 65.256 59.0179C66.3486 56.1685 66.155 51.438 66.1545 51.4246L66.1435 51.3133V21.3917H25.1898V51.3133L25.1788 51.4246C25.1783 51.438 24.9847 56.1685 26.0773 59.0179C26.5667 60.2943 27.297 61.4317 28.5877 62.5543C30.0635 63.838 32.2392 65.1161 35.4978 66.534C40.1866 68.5745 43.691 70.8476 45.6666 72.2708ZM45.6666 75.8517C45.6666 75.8517 49.8594 72.2267 56.956 69.1382C64.0525 66.0497 66.5915 63.4331 67.8962 60.0306C69.2008 56.6281 68.9834 51.3133 68.9834 51.3133V13.5278H22.3499V51.3133C22.3499 51.3133 22.1325 56.6281 23.4371 60.0306C24.7417 63.4331 27.2808 66.0497 34.3773 69.1382C41.4731 72.2263 45.6657 75.8509 45.6666 75.8517Z" fill="#060502"/>
<path fill-rule="evenodd" clip-rule="evenodd" d="M41.745 26.5166L47.8163 26.807L41.7745 29.2797L41.745 26.5166Z" fill="white"/>
<path fill-rule="evenodd" clip-rule="evenodd" d="M64.3855 25.2227H56.0326H54.1079C52.1648 25.2227 51.1793 26.3529 50.8587 26.813L49.7905 28.5101L46.2627 34.1145L43.6881 31.3549C43.6881 31.3549 43.0358 30.465 44.073 29.9957L49.5186 27.32C49.5186 27.32 49.9224 27.1565 49.6419 26.9275C49.3614 26.6984 48.7743 26.3844 48.7743 26.3844C48.7743 26.3844 48.6561 26.2853 48.5455 26.2853C48.4349 26.2853 45.0886 26.2853 45.0886 26.2853C45.0886 26.2853 44.9425 26.2797 44.8284 26.1655C44.7143 26.0511 44.2022 25.6486 44.2022 25.6486C44.2022 25.6486 43.9796 25.5303 43.9219 25.7467C43.8641 25.9631 43.6481 26.1264 43.5145 26.0805C43.3809 26.0346 42.3599 25.3444 42.3599 25.3444C42.3599 25.3444 41.9749 25.1319 41.4595 25.4395C40.9441 25.747 38.4522 27.1213 38.4522 27.1213C38.4522 27.1213 37.9496 27.4156 37.9496 28.2139V35.6609L37.2186 38.1738C37.2186 38.1738 36.9831 38.7541 37.2969 39.2994C37.4515 39.568 38.6884 42.0089 39.9037 44.4162H34.3261L33.5758 43.8141H33.3084V44.5732H32.0074L31.2588 46.0887C32.006 45.6099 32.894 45.3321 33.8464 45.3321C36.2841 45.3321 38.2984 47.1504 38.6157 49.5088L39.2605 48.1966C39.2644 48.1827 39.3924 47.7354 39.2206 47.563C39.0461 47.388 37.4106 45.5868 37.4106 45.5868H38.4966L39.8343 47.0282L40.5186 45.6351C41.5283 47.6378 42.3831 49.338 42.3831 49.338C42.3831 49.338 42.7233 49.9362 42.2919 50.6859C42.0215 51.1559 41.5875 51.9782 41.3013 52.526H40.2554C40.2554 52.526 39.562 52.5629 39.2996 52.107V52.84H38.0112C38.0112 52.84 37.0981 52.8401 37.1449 54.28C37.1449 54.28 37.6209 53.7761 38.0906 53.7761H41.456V53.5666H44.528C44.528 53.5666 44.9848 53.5991 45.2455 53.9722C45.5064 54.3452 45.0563 52.526 44.1953 52.526H42.7494L43.7398 50.4633L45.7747 49.1941L44.1571 48.3041L45.4748 47.6367L44.3007 46.8253H45.6442L48.5895 52.526H47.153C46.2921 52.526 45.8419 54.3452 46.1027 53.9722C46.3635 53.5991 46.8203 53.5666 46.8203 53.5666H49.8922V53.7761H53.2577C53.7274 53.7761 54.2033 54.28 54.2033 54.28C54.2502 52.8401 53.337 52.84 53.337 52.84H52.0486V52.107C51.7863 52.5629 51.0929 52.526 51.0929 52.526H49.9946L48.8051 50.1925L50.4058 49.1941L48.7881 48.3041L50.1058 47.6367L48.9317 46.8253H50.2179L53.848 50.8512H55.35L50.2209 45.1629H51.3819L56.5111 50.8512H58.0654L51.4731 43.5403H52.6342L59.2265 50.8512H61.1968L53.4243 42.2314H57.2849L54.7655 39.7039H51.1453L50.3312 38.8011H54.3125L56.1875 36.2736H49.0764L49.6447 35.3708H56.8572L58.7322 32.8432H51.2356L51.804 31.9404H59.4019L61.2769 29.413H53.3948L53.9632 28.5101H61.9468L64.3855 25.2227ZM42.7553 26.9867C42.3265 26.9867 41.9791 27.3352 41.9791 27.7654C41.9791 28.1956 42.3265 28.5441 42.7553 28.5441C43.1841 28.5441 43.5315 28.1956 43.5315 27.7654C43.5315 27.3352 43.1841 26.9867 42.7553 26.9867ZM44.0113 27.2516C44.0242 27.2777 44.044 27.942 44.044 27.942L45.8473 27.2092C45.8473 27.2092 45.9028 27.1209 45.8669 27.0751C45.8309 27.0294 45.7755 27.049 45.7755 27.049L44.0113 27.2516ZM42.7553 27.3988C42.5535 27.3988 42.3899 27.5629 42.3899 27.7654C42.3899 27.9678 42.5535 28.1319 42.7553 28.1319C42.9571 28.1319 43.1207 27.9678 43.1207 27.7654C43.1207 27.5629 42.9571 27.3988 42.7553 27.3988Z" fill="#060502"/>
<path fill-rule="evenodd" clip-rule="evenodd" d="M50.8376 61.3513L52.0544 57.822L53.271 61.3513H50.8376Z" fill="white"/>
<path fill-rule="evenodd" clip-rule="evenodd" d="M39.8033 62.7685C39.2727 63.4553 38.1871 63.9258 36.9339 63.9258C36.0598 63.9258 35.2672 63.6968 34.6876 63.3252L35.3602 61.3303C35.81 61.5892 36.3647 61.8148 36.9339 61.8148C38.2715 61.8148 38.1877 60.5792 38.1877 60.5792V59.8701V57.2207H36.6609L37.3527 55.2136H38.1877H39.0211H39.9033C40.158 55.2136 40.3663 55.4226 40.3663 55.6779V60.5792C40.3663 62.3711 39.8033 62.7685 39.8033 62.7685ZM50.1121 63.9258H47.9644L48.8434 61.3757L48.8552 61.3421L49.7035 58.881L49.7343 58.792L50.4842 56.6168L50.7768 55.7673L50.8185 55.6465C50.8888 55.4836 51.0626 55.2136 51.4395 55.2136H53.8076L53.4742 56.1804L53.6247 56.6168L54.3745 58.792L54.4052 58.881L55.2536 61.3421L55.2652 61.3757L56.1444 63.9258H53.9966L53.5722 62.6946H50.5365L50.1121 63.9258ZM52.0544 58.2915L51.8818 58.792L51.8512 58.881L51.1613 60.882H52.9474L52.2576 58.881L52.2269 58.792L52.0544 58.2915ZM44.7233 55.2136H44.3191H43.0077C42.7531 55.2136 42.5448 55.4227 42.5448 55.6779V63.9258H44.7233V60.8697H46.7292L47.354 59.0571H44.7233V57.2207H46.3884H46.6738H48.0567L48.7487 55.2136H47.7492H47.0802H44.7233Z" fill="#060502"/>
<path fill-rule="evenodd" clip-rule="evenodd" d="M45.6673 70.824C46.6067 70.1716 47.7759 69.4071 49.1382 68.609C50.862 67.5992 52.9479 66.5029 55.3694 65.4491C56.954 64.7596 58.2734 64.1051 59.3728 63.469C60.4357 62.8538 61.2883 62.256 61.9743 61.6594C62.5368 61.1703 62.9777 60.677 63.3314 60.1669C63.686 59.6556 63.9493 59.1373 64.1566 58.5959C65.1111 56.1066 64.9922 51.9231 64.9778 51.5055L64.9609 22.5788H26.3738L26.3569 51.5055C26.3426 51.9231 26.2236 56.1066 27.1781 58.5959C27.3856 59.1371 27.6489 59.6558 28.0032 60.1669C28.357 60.677 28.7981 61.1705 29.3604 61.6594C30.0464 62.256 30.8988 62.8538 31.9621 63.469C33.0612 64.1051 34.3805 64.7594 35.9653 65.4491C38.387 66.5029 40.4727 67.5992 42.1965 68.609C43.5587 69.407 44.7282 70.1717 45.6673 70.824ZM66.1551 51.4406L66.1553 51.7595C66.1554 51.7622 66.1647 51.9895 66.1678 52.3722C66.1639 53.9021 66.0475 56.9535 65.2559 59.0179C64.7667 60.2944 64.0362 61.4317 62.7455 62.5543C61.2697 63.838 59.094 65.1161 55.8354 66.534C51.1466 68.5745 47.6421 70.8476 45.6666 72.2708C43.691 70.8476 40.1865 68.5745 35.4977 66.534C32.2391 65.1161 30.0634 63.838 28.5877 62.5543C27.2969 61.4317 26.5666 60.2943 26.0772 59.0179C25.2856 56.9535 25.1692 53.9021 25.1653 52.3722C25.1686 51.9895 25.1778 51.7625 25.1779 51.7595L25.178 51.4406L25.1786 51.4245L25.1896 51.3133V21.3917H45.6666H66.1434V51.3133L66.1544 51.4245L66.1551 51.4406Z" fill="#B09438"/>
<path fill-rule="evenodd" clip-rule="evenodd" d="M34.7486 19.4099C34.4206 19.3903 34.1162 19.3268 33.861 19.2246C33.7678 19.1873 33.6703 19.1393 33.6703 19.1306C33.6703 19.1252 34.0367 18.2188 34.0415 18.2124C34.0424 18.2112 34.0885 18.2298 34.144 18.2537C34.4438 18.3825 34.7109 18.4397 34.9712 18.4309C35.0953 18.4266 35.1621 18.4157 35.2543 18.3844C35.4416 18.3209 35.5601 18.1991 35.6137 18.0149L35.6272 17.9687L35.6289 17.1313L35.6306 16.294L35.203 16.2924L34.7755 16.2908L34.968 15.8283L35.1604 15.3658H35.9032C36.615 15.3658 36.6475 15.3663 36.6833 15.3775C36.7544 15.3997 36.8072 15.444 36.835 15.5048L36.8495 15.5367L36.8475 16.8234C36.8456 18.0029 36.8445 18.1162 36.8349 18.1838C36.7953 18.4599 36.731 18.6461 36.6281 18.7827C36.5957 18.8257 36.483 18.9337 36.4113 18.9905C36.1327 19.2111 35.6875 19.3619 35.1919 19.4035C35.0837 19.4126 34.8505 19.4159 34.7486 19.4099Z" fill="#F8F5EB"/>
<path fill-rule="evenodd" clip-rule="evenodd" d="M37.8839 19.4022C37.8868 19.3946 38.1833 18.6818 38.5428 17.8181C38.9022 16.9544 39.2583 16.0986 39.334 15.9162C39.4098 15.7338 39.4782 15.5718 39.4861 15.5563C39.5234 15.4823 39.5997 15.417 39.6853 15.3857L39.7311 15.3689L40.443 15.3673L41.155 15.3656L41.1434 15.3949C41.137 15.411 41.0957 15.5108 41.0516 15.6166C41.0074 15.7223 40.9714 15.8103 40.9714 15.812C40.9714 15.8148 41.5615 17.2344 42.2039 18.7769C42.3454 19.1166 42.4625 19.3994 42.4642 19.4053C42.4672 19.4156 42.4368 19.416 41.8657 19.4146L41.2641 19.413L41.1467 19.1303L41.0293 18.8476L40.1744 18.846L39.3195 18.8444L39.201 19.1302L39.0824 19.4161H38.4805H37.8785L37.8839 19.4022ZM40.6697 17.9887C40.666 17.9714 40.1819 16.8088 40.1758 16.8024C40.1726 16.799 39.7068 17.9062 39.6755 17.9917C39.6718 18.0019 39.698 18.0025 40.1721 18.0025H40.6727L40.6697 17.9887Z" fill="#F8F5EB"/>
<path fill-rule="evenodd" clip-rule="evenodd" d="M43.6726 17.4417C43.6727 15.533 43.6731 15.4664 43.6841 15.4427C43.698 15.4125 43.7232 15.388 43.7534 15.3754C43.7737 15.3669 43.8906 15.3658 44.824 15.3658C45.517 15.3658 45.892 15.368 45.9313 15.3723C46.3961 15.423 46.8151 15.6867 47.0686 16.088C47.1412 16.2029 47.2135 16.3696 47.2492 16.5041C47.3913 17.0398 47.2406 17.6056 46.8515 17.9966C46.6138 18.2356 46.3149 18.3839 45.9632 18.4372C45.9097 18.4453 45.8148 18.4474 45.3951 18.4495L44.8914 18.452V18.934V19.4161H44.2819H43.6725L43.6726 17.4417ZM45.5016 17.5287C45.638 17.5097 45.7755 17.4375 45.8714 17.3346C46.0659 17.126 46.095 16.8079 45.9414 16.5691C45.8373 16.4073 45.6754 16.3052 45.4856 16.2818C45.4568 16.2783 45.3131 16.2755 45.1626 16.2755H44.8914V16.9054V17.5354H45.1727C45.341 17.5354 45.4731 17.5327 45.5016 17.5287Z" fill="#F8F5EB"/>
<path fill-rule="evenodd" clip-rule="evenodd" d="M47.8457 19.4114C47.8472 19.4088 48.0475 18.9283 48.2908 18.3435C48.851 16.9968 49.3376 15.827 49.4003 15.6762C49.427 15.6119 49.458 15.5455 49.4692 15.5286C49.5128 15.4627 49.5707 15.4174 49.6506 15.3866L49.6965 15.3689L50.4092 15.3672C50.9835 15.3659 51.1214 15.367 51.1189 15.3733C51.1172 15.3776 51.0756 15.4781 51.0263 15.5967L50.9366 15.8122L51.684 17.6084C52.095 18.5962 52.4313 19.4071 52.4313 19.4102C52.4313 19.4138 52.2 19.416 51.8317 19.416H51.2321L51.2019 19.3438C51.1853 19.3041 51.1319 19.1755 51.0833 19.0581L50.995 18.8446L50.1405 18.8445L49.286 18.8444L49.1674 19.1302L49.0488 19.416H48.4459C48.1143 19.416 47.8442 19.4139 47.8457 19.4114ZM50.6384 17.9978C50.6411 17.9927 50.1454 16.7981 50.1406 16.7979C50.1383 16.7979 49.6515 17.962 49.6393 17.9966C49.6369 18.0036 50.6347 18.0048 50.6384 17.9978Z" fill="#F8F5EB"/>
<path fill-rule="evenodd" clip-rule="evenodd" d="M53.5536 17.4418L53.5552 15.4673L53.5684 15.4427C53.5756 15.4292 53.5894 15.4106 53.599 15.4015C53.6382 15.3642 53.6094 15.3658 54.2211 15.3661L54.7802 15.3664L55.5611 16.4506L56.342 17.5348L56.3451 16.498C56.3479 15.5497 56.349 15.4595 56.3583 15.4427C56.3735 15.4148 56.3959 15.3929 56.4237 15.3787C56.4485 15.3659 56.4532 15.3658 57.0095 15.3658H57.5702L57.5686 17.3372C57.5672 19.1443 57.5662 19.3103 57.557 19.3305C57.5515 19.3427 57.5366 19.3627 57.5239 19.3752C57.4805 19.4174 57.5014 19.4161 56.893 19.4161H56.3467L55.5634 18.3293L54.7801 17.2425L54.7771 18.279L54.774 19.3156L54.7555 19.3457C54.744 19.3643 54.7256 19.3829 54.707 19.3944L54.677 19.413L54.1145 19.4147L53.552 19.4164L53.5536 17.4418Z" fill="#F8F5EB"/>
</g>
<defs>
<clipPath id="clip0_8_852">
<rect width="49" height="65" fill="white" transform="translate(21.1666 12.5)"/>
</clipPath>
</defs>
</svg>
