<svg width="50" height="66" viewBox="0 0 50 66" fill="none" xmlns="http://www.w3.org/2000/svg">
<g clip-path="url(#clip0_16_564)">
<path fill-rule="evenodd" clip-rule="evenodd" d="M24.6674 58.824C25.6068 58.1716 26.7761 57.4072 28.1383 56.6091C29.8621 55.5993 31.948 54.5029 34.3695 53.4491C35.9541 52.7596 37.2735 52.1052 38.3729 51.469C39.4358 50.8538 40.2884 50.256 40.9744 49.6595C41.5369 49.1704 41.9778 48.677 42.3315 48.1669C42.6861 47.6557 42.9494 47.1373 43.1567 46.596C44.1112 44.1066 43.9923 39.9232 43.9779 39.5055L43.961 10.5789H5.37389L5.35703 39.5055C5.34267 39.9232 5.22367 44.1066 6.17821 46.596C6.38571 47.1372 6.64903 47.6558 7.00335 48.1669C7.35712 48.677 7.7982 49.1706 8.36052 49.6595C9.0465 50.256 9.89892 50.8538 10.9622 51.469C12.0614 52.1052 13.3806 52.7595 14.9654 53.4491C17.3871 54.5029 19.4728 55.5993 21.1967 56.6091C22.5588 57.407 23.7283 58.1718 24.6674 58.824ZM21.7553 14.9867C21.3265 14.9867 20.9791 15.3353 20.9791 15.7654C20.9791 16.1956 21.3265 16.5442 21.7553 16.5442C22.1841 16.5442 22.5316 16.1956 22.5316 15.7654C22.5316 15.3353 22.1841 14.9867 21.7553 14.9867ZM23.0113 15.2517C23.0242 15.2778 23.044 15.9421 23.044 15.9421L24.8473 15.2092C24.8473 15.2092 24.9028 15.121 24.8669 15.0752C24.8309 15.0294 24.7755 15.0491 24.7755 15.0491L23.0113 15.2517ZM21.7553 15.3989C21.5535 15.3989 21.3899 15.563 21.3899 15.7654C21.3899 15.9679 21.5535 16.132 21.7553 16.132C21.9571 16.132 22.1207 15.9679 22.1207 15.7654C22.1207 15.563 21.9571 15.3989 21.7553 15.3989Z" fill="white"/>
<path fill-rule="evenodd" clip-rule="evenodd" d="M36.3238 58.0961C29.9385 60.875 26.1966 64.0888 26.1266 64.1489C25.6706 64.5935 25.0346 65.0764 24.5354 65.5L23.1021 64.062C22.6893 63.7203 21.0905 62.4414 18.4898 60.9C16.9679 59.9981 15.1234 59.0164 13.009 58.0961C11.204 57.3107 9.69249 56.5561 8.42147 55.8128C7.11417 55.048 6.03706 54.2843 5.1384 53.5027C4.18214 52.671 3.4272 51.8213 2.81602 50.9338C2.20651 50.0485 1.74281 49.1259 1.367 48.1452C0.889286 46.8989 0.598647 45.4591 0.424048 44.0918C0.154216 41.9791 0.157379 40.0217 0.171404 39.2706V0.5H49.1614V39.2706C49.1754 40.0217 49.1786 41.9791 48.9087 44.0918C48.7341 45.4591 48.4435 46.8989 47.9658 48.1452C47.5901 49.1259 47.1263 50.0483 46.5169 50.9338C45.9057 51.8213 45.1508 52.671 44.1944 53.5027C43.2957 54.2843 42.2186 55.048 40.9113 55.8128C39.6405 56.5561 38.1287 57.3107 36.3238 58.0961ZM24.6664 63.8517C24.6664 63.8517 28.8592 60.2267 35.9557 57.1382C43.0523 54.0497 45.5913 51.4331 46.8959 48.0306C48.2005 44.6281 47.9831 39.3133 47.9831 39.3133V1.52786H1.34964V39.3133C1.34964 39.3133 1.13224 44.6281 2.43687 48.0306C3.7415 51.4331 6.28052 54.0497 13.3771 57.1382C20.4728 60.2263 24.6654 63.8509 24.6664 63.8517Z" fill="white"/>
<path fill-rule="evenodd" clip-rule="evenodd" d="M18.0833 7.41518H16.8775L17.371 6.22887L17.3776 6.21322L17.8539 5.0684L17.8711 5.02691L18.2922 4.01504L18.4565 3.61983L18.4799 3.56367C18.5194 3.48784 18.6169 3.3623 18.8286 3.3623H20.1582L19.971 3.81197L20.0556 4.01504L20.4765 5.02691L20.4937 5.0684L20.97 6.21322L20.9767 6.22887L21.4702 7.41518H20.2644L20.0261 6.84234H18.3216L18.0833 7.41518ZM32.689 3.3623H33.1098H33.777L35.3452 5.53799V4.33761V3.49828C35.3469 3.42436 35.4071 3.3642 35.4806 3.3623H35.9014H36.5686V6.43987V7.27921C36.5669 7.35314 36.5068 7.41328 36.4333 7.41518H36.0125H35.3452L33.777 5.23949V6.43987V7.27921C33.7753 7.35314 33.7152 7.41328 33.6417 7.41518H33.2209H32.5536V4.33761V3.49828C32.5553 3.42436 32.6155 3.3642 32.689 3.3623ZM22.8076 3.3623H22.873H23.892H24.7644H24.7968C25.6319 3.37956 26.3035 4.0643 26.3035 4.90632C26.3035 5.74834 25.6319 6.43272 24.7968 6.44998H24.791L24.7644 6.45032L24.738 6.44998H23.892V7.41518H22.6686V3.5019C22.6686 3.42495 22.7311 3.3623 22.8076 3.3623ZM23.892 4.27809V5.53453H24.4027H24.4136H24.4243H24.4265C24.7663 5.52739 25.0396 5.24899 25.0396 4.90632C25.0396 4.56365 24.7663 4.28523 24.4265 4.27809H24.4134H23.892ZM28.0497 7.41518H26.8439L27.3374 6.22887L27.344 6.21322L27.8204 5.0684L27.8376 5.02691L28.2586 4.01504L28.4228 3.61983L28.4464 3.56367C28.4858 3.48784 28.5833 3.3623 28.795 3.3623H30.1246L29.9375 3.81197L30.022 4.01504L30.443 5.02691L30.4602 5.0684L30.9365 6.21322L30.9431 6.22887L31.4366 7.41518H30.2307L29.9925 6.84234H28.288L28.0497 7.41518ZM29.1402 4.79408L29.0434 5.02691L29.0262 5.0684L28.6389 5.9992H29.6417L29.2543 5.0684L29.2371 5.02691L29.1402 4.79408ZM15.537 6.87668C15.239 7.19629 14.6296 7.41518 13.9259 7.41518C13.435 7.41518 12.9902 7.30864 12.6647 7.13582L13.0424 6.20765C13.2948 6.32815 13.6062 6.43306 13.9259 6.43306C14.6769 6.43306 14.6299 5.85833 14.6299 5.85833V5.5285V4.29601H13.7725L14.161 3.3623H14.6299H15.0978H15.5932C15.7362 3.3623 15.853 3.45948 15.853 3.57818V5.85833C15.853 6.69186 15.537 6.87668 15.537 6.87668ZM19.1738 4.79408L19.0769 5.02691L19.0598 5.0684L18.6724 5.9992H19.6752L19.2879 5.0684L19.2707 5.02691L19.1738 4.79408Z" fill="white"/>
<path fill-rule="evenodd" clip-rule="evenodd" d="M21.7552 14.9867C21.3264 14.9867 20.979 15.3352 20.979 15.7654C20.979 16.1956 21.3264 16.5442 21.7552 16.5442C22.1841 16.5442 22.5315 16.1956 22.5315 15.7654C22.5315 15.3352 22.1841 14.9867 21.7552 14.9867ZM23.0113 15.2516C23.0242 15.2778 23.0439 15.9421 23.0439 15.9421L24.8472 15.2092C24.8472 15.2092 24.9027 15.1209 24.8668 15.0751C24.8308 15.0294 24.7754 15.0491 24.7754 15.0491L23.0113 15.2516ZM21.7552 15.3988C21.5534 15.3988 21.3898 15.563 21.3898 15.7654C21.3898 15.9679 21.5534 16.132 21.7552 16.132C21.957 16.132 22.1206 15.9679 22.1206 15.7654C22.1206 15.563 21.957 15.3988 21.7552 15.3988Z" fill="white"/>
<path fill-rule="evenodd" clip-rule="evenodd" d="M12.8464 34.0383C13.9363 34.0383 14.9815 34.4728 15.7521 35.246C16.5227 36.0193 16.9557 37.0681 16.9557 38.1616C16.9557 38.9772 16.7146 39.7744 16.2631 40.4524C15.8116 41.1305 15.1698 41.659 14.419 41.9711C13.6681 42.2832 12.8419 42.3648 12.0447 42.2057C11.2476 42.0466 10.5154 41.6539 9.94076 41.0773C9.36607 40.5006 8.9747 39.7659 8.81614 38.9661C8.65759 38.1662 8.73896 37.3372 9.04998 36.5837C9.361 35.8303 9.88769 35.1863 10.5634 34.7332C11.2392 34.2802 12.0337 34.0383 12.8464 34.0383Z" fill="#E30016"/>
<path fill-rule="evenodd" clip-rule="evenodd" d="M18.8036 11.7659V53.9506C18.8036 53.9506 20.0737 54.5889 21.867 55.6278C23.6603 56.6668 24.6656 57.3917 24.6656 57.3917C24.6656 57.3917 25.8555 56.5708 27.4411 55.6522C29.0267 54.7336 30.4396 53.9982 30.4396 53.9982V34.5173L29.2209 33.1629H30.3819L30.4396 33.2265V27.7036L30.1453 27.7039L29.3312 26.8011L30.4396 26.8013V24.2726L28.0764 24.2738L28.6447 23.3709L30.4396 23.3709V20.8436L30.2357 20.8434L30.4396 20.5195V11.766L18.8036 11.7659Z" fill="#E30016"/>
<path fill-rule="evenodd" clip-rule="evenodd" d="M24.6666 60.2708C26.6422 58.8476 30.1467 56.5745 34.8355 54.534C38.0941 53.1161 40.2698 51.838 41.7455 50.5543C43.0363 49.4317 43.7668 48.2945 44.256 47.0179C45.3486 44.1685 45.155 39.438 45.1545 39.4246L45.1435 39.3133V9.39173H4.1898V39.3133L4.17878 39.4246C4.17828 39.438 3.98469 44.1685 5.07727 47.0179C5.56667 48.2943 6.29702 49.4317 7.58773 50.5543C9.06351 51.838 11.2392 53.1161 14.4978 54.534C19.1866 56.5745 22.691 58.8476 24.6666 60.2708ZM24.6666 63.8517C24.6666 63.8517 28.8594 60.2267 35.956 57.1382C43.0525 54.0497 45.5915 51.4331 46.8962 48.0306C48.2008 44.6281 47.9834 39.3133 47.9834 39.3133V1.52783H1.34989V39.3133C1.34989 39.3133 1.13249 44.6281 2.43712 48.0306C3.74175 51.4331 6.28077 54.0497 13.3773 57.1382C20.4731 60.2263 24.6657 63.8509 24.6666 63.8517Z" fill="#060502"/>
<path fill-rule="evenodd" clip-rule="evenodd" d="M20.745 14.5166L26.8163 14.807L20.7745 17.2797L20.745 14.5166Z" fill="white"/>
<path fill-rule="evenodd" clip-rule="evenodd" d="M43.3855 13.2227H35.0326H33.1079C31.1648 13.2227 30.1793 14.3529 29.8587 14.813L28.7905 16.5101L25.2627 22.1145L22.6881 19.3549C22.6881 19.3549 22.0358 18.465 23.073 17.9957L28.5186 15.32C28.5186 15.32 28.9224 15.1565 28.6419 14.9275C28.3614 14.6984 27.7743 14.3844 27.7743 14.3844C27.7743 14.3844 27.6561 14.2853 27.5455 14.2853C27.4349 14.2853 24.0886 14.2853 24.0886 14.2853C24.0886 14.2853 23.9425 14.2797 23.8284 14.1655C23.7143 14.0511 23.2022 13.6486 23.2022 13.6486C23.2022 13.6486 22.9796 13.5303 22.9219 13.7467C22.8641 13.9631 22.6481 14.1264 22.5145 14.0805C22.3809 14.0346 21.3599 13.3444 21.3599 13.3444C21.3599 13.3444 20.9749 13.1319 20.4595 13.4395C19.9441 13.747 17.4522 15.1213 17.4522 15.1213C17.4522 15.1213 16.9496 15.4156 16.9496 16.2139V23.6609L16.2186 26.1738C16.2186 26.1738 15.9831 26.7541 16.2969 27.2994C16.4515 27.568 17.6884 30.0089 18.9037 32.4162H13.3261L12.5758 31.8141H12.3084V32.5732H11.0074L10.2588 34.0887C11.006 33.6099 11.894 33.3321 12.8464 33.3321C15.2841 33.3321 17.2984 35.1504 17.6157 37.5088L18.2605 36.1966C18.2644 36.1827 18.3924 35.7354 18.2206 35.563C18.0461 35.388 16.4106 33.5868 16.4106 33.5868H17.4966L18.8343 35.0282L19.5186 33.6351C20.5283 35.6378 21.3831 37.338 21.3831 37.338C21.3831 37.338 21.7233 37.9362 21.2919 38.6859C21.0215 39.1559 20.5875 39.9782 20.3013 40.526H19.2554C19.2554 40.526 18.562 40.5629 18.2996 40.107V40.84H17.0112C17.0112 40.84 16.0981 40.8401 16.1449 42.28C16.1449 42.28 16.6209 41.7761 17.0906 41.7761H20.456V41.5666H23.528C23.528 41.5666 23.9848 41.5991 24.2455 41.9722C24.5064 42.3452 24.0563 40.526 23.1953 40.526H21.7494L22.7398 38.4633L24.7747 37.1941L23.1571 36.3041L24.4748 35.6367L23.3007 34.8253H24.6442L27.5895 40.526H26.153C25.2921 40.526 24.8419 42.3452 25.1027 41.9722C25.3635 41.5991 25.8203 41.5666 25.8203 41.5666H28.8922V41.7761H32.2577C32.7274 41.7761 33.2033 42.28 33.2033 42.28C33.2502 40.8401 32.337 40.84 32.337 40.84H31.0486V40.107C30.7863 40.5629 30.0929 40.526 30.0929 40.526H28.9946L27.8051 38.1925L29.4058 37.1941L27.7881 36.3041L29.1058 35.6367L27.9317 34.8253H29.2179L32.848 38.8512H34.35L29.2209 33.1629H30.3819L35.5111 38.8512H37.0654L30.4731 31.5403H31.6342L38.2265 38.8512H40.1968L32.4243 30.2314H36.2849L33.7655 27.7039H30.1453L29.3312 26.8011H33.3125L35.1875 24.2736H28.0764L28.6447 23.3708H35.8572L37.7322 20.8432H30.2356L30.804 19.9404H38.4019L40.2769 17.413H32.3948L32.9632 16.5101H40.9468L43.3855 13.2227ZM21.7553 14.9867C21.3265 14.9867 20.9791 15.3352 20.9791 15.7654C20.9791 16.1956 21.3265 16.5441 21.7553 16.5441C22.1841 16.5441 22.5315 16.1956 22.5315 15.7654C22.5315 15.3352 22.1841 14.9867 21.7553 14.9867ZM23.0113 15.2516C23.0242 15.2777 23.044 15.942 23.044 15.942L24.8473 15.2092C24.8473 15.2092 24.9028 15.1209 24.8669 15.0751C24.8309 15.0294 24.7755 15.049 24.7755 15.049L23.0113 15.2516ZM21.7553 15.3988C21.5535 15.3988 21.3899 15.5629 21.3899 15.7654C21.3899 15.9678 21.5535 16.1319 21.7553 16.1319C21.9571 16.1319 22.1207 15.9678 22.1207 15.7654C22.1207 15.5629 21.9571 15.3988 21.7553 15.3988Z" fill="#060502"/>
<path fill-rule="evenodd" clip-rule="evenodd" d="M29.8376 49.3513L31.0544 45.822L32.271 49.3513H29.8376Z" fill="white"/>
<path fill-rule="evenodd" clip-rule="evenodd" d="M18.8033 50.7685C18.2727 51.4553 17.1871 51.9258 15.9339 51.9258C15.0598 51.9258 14.2672 51.6968 13.6876 51.3252L14.3602 49.3303C14.81 49.5892 15.3647 49.8148 15.9339 49.8148C17.2715 49.8148 17.1877 48.5792 17.1877 48.5792V47.8701V45.2207H15.6609L16.3527 43.2136H17.1877H18.0211H18.9033C19.158 43.2136 19.3663 43.4226 19.3663 43.6779V48.5792C19.3663 50.3711 18.8033 50.7685 18.8033 50.7685ZM29.1121 51.9258H26.9644L27.8434 49.3757L27.8552 49.3421L28.7035 46.881L28.7343 46.792L29.4842 44.6168L29.7768 43.7673L29.8185 43.6465C29.8888 43.4836 30.0626 43.2136 30.4395 43.2136H32.8076L32.4742 44.1804L32.6247 44.6168L33.3745 46.792L33.4052 46.881L34.2536 49.3421L34.2652 49.3757L35.1444 51.9258H32.9966L32.5722 50.6946H29.5365L29.1121 51.9258ZM31.0544 46.2915L30.8818 46.792L30.8512 46.881L30.1613 48.882H31.9474L31.2576 46.881L31.2269 46.792L31.0544 46.2915ZM23.7233 43.2136H23.3191H22.0077C21.7531 43.2136 21.5448 43.4227 21.5448 43.6779V51.9258H23.7233V48.8697H25.7292L26.354 47.0571H23.7233V45.2207H25.3884H25.6738H27.0567L27.7487 43.2136H26.7492H26.0802H23.7233Z" fill="#060502"/>
<path fill-rule="evenodd" clip-rule="evenodd" d="M24.6673 58.824C25.6067 58.1716 26.7759 57.4071 28.1382 56.609C29.862 55.5992 31.9479 54.5029 34.3694 53.4491C35.954 52.7596 37.2734 52.1051 38.3728 51.469C39.4357 50.8538 40.2883 50.256 40.9743 49.6594C41.5368 49.1703 41.9777 48.677 42.3314 48.1669C42.686 47.6556 42.9493 47.1373 43.1566 46.5959C44.1111 44.1066 43.9922 39.9231 43.9778 39.5055L43.9609 10.5788H5.37379L5.35694 39.5055C5.34258 39.9231 5.22357 44.1066 6.17811 46.5959C6.3856 47.1371 6.64893 47.6558 7.00325 48.1669C7.35701 48.677 7.79809 49.1705 8.36041 49.6594C9.0464 50.256 9.89881 50.8538 10.9621 51.469C12.0612 52.1051 13.3805 52.7594 14.9653 53.4491C17.387 54.5029 19.4727 55.5992 21.1965 56.609C22.5587 57.407 23.7282 58.1717 24.6673 58.824ZM45.1551 39.4406L45.1553 39.7595C45.1554 39.7622 45.1647 39.9895 45.1678 40.3722C45.1639 41.9021 45.0475 44.9535 44.2559 47.0179C43.7667 48.2944 43.0362 49.4317 41.7455 50.5543C40.2697 51.838 38.094 53.1161 34.8354 54.534C30.1466 56.5745 26.6421 58.8476 24.6666 60.2708C22.691 58.8476 19.1865 56.5745 14.4977 54.534C11.2391 53.1161 9.06343 51.838 7.58765 50.5543C6.29694 49.4317 5.56659 48.2943 5.07719 47.0179C4.28561 44.9535 4.16923 41.9021 4.16528 40.3722C4.16862 39.9895 4.17776 39.7625 4.17787 39.7595L4.17804 39.4406L4.17858 39.4245L4.18961 39.3133V9.39172H24.6666H45.1434V39.3133L45.1544 39.4245L45.1551 39.4406Z" fill="#B09438"/>
<path fill-rule="evenodd" clip-rule="evenodd" d="M13.7486 7.40986C13.4206 7.39028 13.1162 7.32676 12.861 7.22461C12.7678 7.1873 12.6703 7.13926 12.6703 7.13058C12.6703 7.12519 13.0367 6.21884 13.0415 6.2124C13.0424 6.21123 13.0885 6.2298 13.144 6.25366C13.4438 6.38249 13.7109 6.43971 13.9712 6.43086C14.0953 6.42665 14.1621 6.41567 14.2543 6.38441C14.4416 6.32087 14.5601 6.19906 14.6137 6.0149L14.6272 5.96867L14.6289 5.13132L14.6306 4.29397L14.203 4.29239L13.7755 4.29082L13.968 3.82833L14.1604 3.36584H14.9032C15.615 3.36584 15.6475 3.36633 15.6833 3.37749C15.7544 3.39972 15.8072 3.44402 15.835 3.50476L15.8495 3.53669L15.8475 4.82336C15.8456 6.00287 15.8445 6.11617 15.8349 6.18378C15.7953 6.45989 15.731 6.64605 15.6281 6.78273C15.5957 6.82569 15.483 6.93369 15.4113 6.99053C15.1327 7.21113 14.6875 7.36191 14.1919 7.40352C14.0837 7.41261 13.8505 7.41594 13.7486 7.40986Z" fill="#F8F5EB"/>
<path fill-rule="evenodd" clip-rule="evenodd" d="M16.8839 7.40223C16.8868 7.39462 17.1833 6.68177 17.5428 5.8181C17.9022 4.95443 18.2583 4.09858 18.334 3.91619C18.4098 3.73381 18.4782 3.57184 18.4861 3.55627C18.5234 3.48233 18.5997 3.41703 18.6853 3.38569L18.7311 3.36892L19.443 3.36726L20.155 3.3656L20.1434 3.39492C20.137 3.41104 20.0957 3.51078 20.0516 3.61657C20.0074 3.72235 19.9714 3.81029 19.9714 3.81198C19.9714 3.8148 20.5615 5.23437 21.2039 6.77687C21.3454 7.11659 21.4625 7.3994 21.4642 7.40533C21.4672 7.41557 21.4368 7.41604 20.8657 7.41455L20.2641 7.41298L20.1467 7.13027L20.0293 6.84755L19.1744 6.846L18.3195 6.84444L18.201 7.13025L18.0824 7.41606H17.4805H16.8785L16.8839 7.40223ZM19.6697 5.98865C19.666 5.97138 19.1819 4.80882 19.1758 4.80241C19.1726 4.79904 18.7068 5.90622 18.6755 5.99172C18.6718 6.00191 18.698 6.00248 19.1721 6.00248H19.6727L19.6697 5.98865Z" fill="#F8F5EB"/>
<path fill-rule="evenodd" clip-rule="evenodd" d="M22.6726 5.44165C22.6727 3.53297 22.6731 3.46644 22.6841 3.44267C22.698 3.41254 22.7232 3.38805 22.7534 3.37539C22.7737 3.36689 22.8906 3.36584 23.824 3.36584C24.517 3.36584 24.892 3.36804 24.9313 3.37233C25.3961 3.42297 25.8151 3.68669 26.0686 4.08801C26.1412 4.20292 26.2135 4.36955 26.2492 4.50413C26.3913 5.03976 26.2406 5.6056 25.8515 5.99663C25.6138 6.23562 25.3149 6.38387 24.9632 6.4372C24.9097 6.44533 24.8148 6.44737 24.3951 6.44946L23.8914 6.45196V6.93401V7.41605H23.2819H22.6725L22.6726 5.44165ZM24.5016 5.52873C24.638 5.5097 24.7755 5.43751 24.8714 5.3346C25.0659 5.12596 25.095 4.8079 24.9414 4.56912C24.8373 4.4073 24.6754 4.30524 24.4856 4.28185C24.4568 4.2783 24.3131 4.27545 24.1626 4.27545H23.8914V4.90542V5.53538H24.1727C24.341 5.53538 24.4731 5.53271 24.5016 5.52873Z" fill="#F8F5EB"/>
<path fill-rule="evenodd" clip-rule="evenodd" d="M26.8457 7.41138C26.8472 7.40884 27.0475 6.9283 27.2908 6.34351C27.851 4.99679 28.3376 3.82699 28.4003 3.67615C28.427 3.61193 28.458 3.54555 28.4692 3.52865C28.5128 3.46271 28.5707 3.41737 28.6506 3.38657L28.6965 3.36885L29.4092 3.36719C29.9835 3.36585 30.1214 3.36704 30.1189 3.37334C30.1172 3.37763 30.0756 3.47814 30.0263 3.59668L29.9366 3.81222L30.684 5.60835C31.095 6.59622 31.4313 7.40707 31.4313 7.41023C31.4313 7.41377 31.2 7.41599 30.8317 7.41599H30.2321L30.2019 7.34377C30.1853 7.30405 30.1319 7.17548 30.0833 7.05805L29.995 6.84455L29.1405 6.84448L28.286 6.84441L28.1674 7.1302L28.0488 7.41599H27.4459C27.1143 7.41599 26.8442 7.41391 26.8457 7.41138ZM29.6384 5.9978C29.6411 5.99268 29.1454 4.79809 29.1406 4.79795C29.1383 4.79788 28.6515 5.96202 28.6393 5.99661C28.6369 6.00356 29.6347 6.00475 29.6384 5.9978Z" fill="#F8F5EB"/>
<path fill-rule="evenodd" clip-rule="evenodd" d="M32.5536 5.44181L32.5552 3.46726L32.5684 3.44267C32.5756 3.42915 32.5894 3.41063 32.599 3.40151C32.6382 3.36418 32.6094 3.36582 33.2211 3.36612L33.7802 3.3664L34.5611 4.4506L35.342 5.5348L35.3451 4.49796C35.3479 3.54972 35.349 3.45953 35.3583 3.44267C35.3735 3.41477 35.3959 3.39287 35.4237 3.37866C35.4485 3.36595 35.4532 3.36584 36.0095 3.36584H36.5702L36.5686 5.33717C36.5672 7.14427 36.5662 7.31033 36.557 7.33054C36.5515 7.34266 36.5366 7.36273 36.5239 7.37515C36.4805 7.4174 36.5014 7.41605 35.893 7.41605H35.3467L34.5634 6.32925L33.7801 5.24245L33.7771 6.27903L33.774 7.31561L33.7555 7.34569C33.744 7.36434 33.7256 7.38285 33.707 7.39438L33.677 7.41298L33.1145 7.41467L32.552 7.41636L32.5536 5.44181Z" fill="#F8F5EB"/>
</g>
<defs>
<clipPath id="clip0_16_564">
<rect width="49" height="65" fill="white" transform="translate(0.166626 0.5)"/>
</clipPath>
</defs>
</svg>
