<svg width="66" height="66" viewBox="0 0 66 66" fill="none" xmlns="http://www.w3.org/2000/svg">
<g clip-path="url(#clip0_16_142)">
<path d="M33.0079 0.5C15.0873 0.5 0.5 15.0873 0.5 33.0079C0.5 50.9286 15.0873 65.5159 33.0079 65.5159C50.9286 65.5159 65.5159 50.9286 65.5159 33.0079C65.5 15.0873 50.9286 0.5 33.0079 0.5Z" fill="#00285E"/>
<path d="M62.1191 33.008C62.1191 16.9286 49.0873 3.89685 32.9921 3.89685C16.9127 3.89685 3.86511 16.9286 3.86511 33.008C3.86511 49.0873 16.9127 62.1349 32.9921 62.1349C49.0873 62.1191 62.1191 49.0873 62.1191 33.008Z" fill="white"/>
<path d="M51.5476 33.0079C51.5476 22.7698 43.246 14.4683 33.0079 14.4683C22.7698 14.4683 14.4683 22.7698 14.4683 33.0079C14.4683 43.246 22.7698 51.5476 33.0079 51.5476C43.246 51.5476 51.5476 43.246 51.5476 33.0079Z" fill="#6CADDF"/>
<path d="M33.0079 53.0079C21.9762 53.0079 13.0079 44.0238 13.0079 32.9921C13.0079 21.9603 21.9762 12.9921 33.0079 12.9921C44.0397 12.9921 53.0238 21.9603 53.0238 32.9921C53.0079 44.0397 44.0397 53.0079 33.0079 53.0079ZM33.0079 14.1191C22.5952 14.1191 14.119 22.5952 14.119 33.0079C14.119 43.4206 22.5952 51.8968 33.0079 51.8968C43.4206 51.8968 51.8968 43.4206 51.8968 33.0079C51.8968 22.5952 43.4206 14.1191 33.0079 14.1191Z" fill="#00285E"/>
<path d="M33.008 64.1826C15.8175 64.1826 1.83337 50.1985 1.83337 33.008C1.83337 15.8175 15.8175 1.83337 33.008 1.83337C50.1985 1.83337 64.1826 15.8175 64.1826 33.008C64.1667 50.1985 50.1985 64.1826 33.008 64.1826ZM33.008 2.50004C16.1826 2.50004 2.51591 16.1826 2.51591 33.008C2.51591 49.8175 16.1985 63.5 33.008 63.5C49.8175 63.5 63.5 49.8175 63.5 33.008C63.5 16.1826 49.8175 2.50004 33.008 2.50004Z" fill="#6CADDF"/>
<path d="M6.99211 32.2936L6.4683 32.4206L6.32544 31.8809L7.19846 31.627H7.6429V34.6746H6.99211V32.2936Z" fill="#6CADDF"/>
<path d="M8.40479 33.8333C8.40479 33.4524 8.57939 33.246 8.89685 33.1032C8.65875 32.9603 8.5159 32.7698 8.5159 32.4365V32.4206C8.5159 31.9603 8.94447 31.5952 9.57939 31.5952C10.2143 31.5952 10.6429 31.9603 10.6429 32.4206V32.4365C10.6429 32.7539 10.5 32.9603 10.2619 33.1032C10.5635 33.2619 10.754 33.4524 10.754 33.8174V33.8333C10.754 34.3889 10.2619 34.7222 9.59526 34.7222C8.92859 34.7222 8.40479 34.3571 8.40479 33.8333ZM10.0873 33.7857C10.0873 33.5476 9.8651 33.4047 9.56352 33.4047C9.26193 33.4047 9.03971 33.5476 9.03971 33.7698C9.03971 33.9762 9.23018 34.1508 9.56352 34.1508C9.89685 34.1508 10.0873 33.992 10.0873 33.7857ZM10.008 32.5159C10.008 32.3254 9.84923 32.1508 9.57939 32.1508C9.30955 32.1508 9.15082 32.3095 9.15082 32.5V32.5159C9.15082 32.7222 9.32542 32.8809 9.57939 32.8809C9.83336 32.8809 10.008 32.7222 10.008 32.5159Z" fill="#6CADDF"/>
<path d="M56.3254 33.4206C56.1666 33.5476 55.9762 33.627 55.7063 33.627C55.0555 33.627 54.627 33.2619 54.627 32.6587V32.6428C54.627 32.0397 55.1031 31.5793 55.7857 31.5793C56.1984 31.5793 56.4206 31.6746 56.6587 31.9127C56.8809 32.1349 57.0079 32.4524 57.0079 33.0555V33.0714C57.0079 34.0555 56.5476 34.7222 55.6904 34.7222C55.246 34.7222 54.9603 34.5793 54.6904 34.3571L55.0397 33.8492C55.2619 34.0238 55.4523 34.1032 55.7063 34.1032C56.1666 34.1032 56.2936 33.6746 56.3254 33.4206ZM56.3412 32.627C56.3412 32.3571 56.1508 32.1508 55.8174 32.1508C55.4841 32.1508 55.3095 32.3413 55.3095 32.6111V32.627C55.3095 32.8968 55.5158 33.0873 55.8333 33.0873C56.1508 33.0714 56.3412 32.8809 56.3412 32.627Z" fill="#6CADDF"/>
<path d="M59.1349 34.0079H57.6587L57.5476 33.5317L59.1984 31.6111H59.754V33.4682H60.1667V34.0079H59.754V34.6587H59.119V34.0079H59.1349ZM59.1349 33.4682V32.5317L58.3254 33.4682H59.1349Z" fill="#6CADDF"/>
<path d="M33.0079 51.8968C22.5952 51.8968 14.119 43.4206 14.119 33.0079C14.119 22.5952 22.5952 14.119 33.0079 14.119C43.4206 14.119 51.8968 22.5952 51.8968 33.0079C51.8968 43.4206 43.4206 51.8968 33.0079 51.8968ZM33.0079 14.8174C22.9762 14.8174 14.8174 22.9762 14.8174 33.0079C14.8174 43.0397 22.9762 51.1984 33.0079 51.1984C43.0397 51.1984 51.1984 43.0397 51.1984 33.0079C51.1984 22.9762 43.0397 14.8174 33.0079 14.8174Z" fill="white"/>
<path fill-rule="evenodd" clip-rule="evenodd" d="M32.6587 16.738C23.3413 16.738 17.9603 17.9603 17.9603 17.9603C17.9603 17.9603 15.8175 26.1349 17.0397 36.5952C17.5476 40.992 21.1191 50.4364 32.9603 53.6745C44.8016 50.4523 48.373 40.992 48.881 36.5952C50.1032 26.119 47.9603 17.9603 47.9603 17.9603C47.9603 17.9603 42.5794 16.738 33.2619 16.738H32.6587Z" fill="#00285E"/>
<path fill-rule="evenodd" clip-rule="evenodd" d="M47.246 34.1666C47.1349 37.3412 46.6428 46.8333 32.9444 52.0555C19.3571 46.9761 18.6428 37.1508 18.6428 34.1666H47.246Z" fill="#97C1E7"/>
<path fill-rule="evenodd" clip-rule="evenodd" d="M46.8334 33.6429C47.1984 25.7699 45.8651 19.3889 45.8651 19.3889C45.8651 19.3889 40.754 18.4048 32.9604 18.4048C25.1508 18.4048 19.9604 19.4841 19.9604 19.4841C19.9604 19.4841 18.5477 25.8968 18.9286 33.627H46.8334V33.6429Z" fill="white"/>
<path d="M33.373 51.7698L18.9127 34.2936C18.3889 37.8968 21.3095 48.5158 33.373 51.7698Z" fill="#6CADDF"/>
<path d="M23.2301 34.1825L36.6111 50.3254C37.9603 49.6746 38.9603 49.0396 39.9126 48.2777L28.2301 34.1825H23.2301Z" fill="#6CADDF"/>
<path d="M32.5159 34.1984L42.4048 46.119C43.373 45.0238 44.1984 44.0238 44.7857 42.9761L37.5159 34.1984H32.5159Z" fill="#6CADDF"/>
<path d="M47.0079 34.1984L42.0714 34.1825L46.2143 39.1825C46.9286 37.6428 47.0079 35.0555 47.0079 34.1984Z" fill="#6CADDF"/>
<path d="M38.7857 40.7381C38.7539 40.627 38.6587 40.5318 38.5476 40.4841L37.7222 40.1984C37.6428 40.1667 37.5793 40.1825 37.5 40.1984C37.4365 39.9127 37.2778 39.6587 37.0397 39.4841C37.0079 39.4683 36.9762 39.4365 36.9444 39.4206C36.8968 39.3889 36.8333 39.3572 36.7698 39.3254C36.6587 39.2778 36.5476 39.246 36.4524 39.2143C36.2143 39.1349 35.9762 39.0556 35.6746 38.8492C35.3889 38.6429 35.2619 38.4524 35.1349 38.2778C35.1032 38.2302 35.0714 38.1984 35.0397 38.1508C34.9603 38.0238 34.8492 37.9127 34.7381 37.8175C34.5317 37.6746 34.2778 37.5952 34.0238 37.5952C33.9603 37.5952 33.9127 37.6111 33.8492 37.6111C33.8492 37.6111 33.8492 37.6111 33.8492 37.5952C33.8651 37.5 33.8333 37.3889 33.7857 37.3095L33.2778 36.627C33.1984 36.5318 33.0873 36.4683 32.9603 36.4683C32.8333 36.4683 32.7222 36.5159 32.6587 36.6111L32.119 37.2937C32.0555 37.373 32.0238 37.4841 32.0397 37.5952C31.992 37.5952 31.9603 37.5794 31.9127 37.5794C31.6587 37.5794 31.4047 37.6587 31.1984 37.8016C31.1666 37.8175 31.1349 37.8492 31.119 37.8651C31.0714 37.9127 31.0238 37.9445 30.9762 38.0079C30.8968 38.1032 30.8333 38.1825 30.7698 38.2778C30.6111 38.4841 30.4841 38.6746 30.1666 38.8968C29.8809 39.1032 29.6587 39.1667 29.4524 39.2302C29.4047 39.246 29.3571 39.2619 29.3095 39.2778C29.1666 39.3095 29.0238 39.373 28.8968 39.4683C28.6428 39.6429 28.4841 39.9127 28.4206 40.2143C28.3413 40.1825 28.246 40.1825 28.1508 40.1984L27.3413 40.4683C27.2301 40.5 27.1349 40.5952 27.0873 40.7064C27.0555 40.8175 27.0714 40.9444 27.1349 41.0397L27.627 41.754C27.6905 41.8333 27.7698 41.881 27.8651 41.9127C27.7381 42.1825 27.7063 42.5159 27.8016 42.8016C27.8174 42.8333 27.8333 42.8651 27.8333 42.8968C27.8492 42.9603 27.8809 43.0238 27.9286 43.0873C27.992 43.1825 28.0555 43.2778 28.119 43.3571C28.2778 43.5635 28.4206 43.754 28.5317 44.1191C28.6428 44.4524 28.627 44.6746 28.627 44.8968C28.627 44.9445 28.627 45.0079 28.627 45.0556C28.6111 45.2143 28.627 45.3571 28.6905 45.5C28.7857 45.7857 28.992 46.0238 29.2301 46.1667C29.1984 46.2302 29.1666 46.2937 29.1825 46.3571V47.2143C29.1825 47.3413 29.246 47.4524 29.3413 47.5159C29.4365 47.5794 29.5635 47.6111 29.6746 47.5794L30.5159 47.3413C30.5952 47.3254 30.6428 47.2619 30.6905 47.2143C30.9444 47.4524 31.2936 47.5635 31.627 47.5476C31.6905 47.5476 31.7539 47.5318 31.8333 47.5159C31.9444 47.4841 32.0555 47.4524 32.1508 47.4206C32.3889 47.3413 32.627 47.2619 33.0079 47.2619C33.3571 47.2619 33.5635 47.3413 33.7857 47.4048C33.8333 47.4206 33.8809 47.4365 33.9286 47.4524C34.0714 47.5159 34.2301 47.5318 34.373 47.5318C34.6746 47.5318 34.9762 47.4048 35.1984 47.1984C35.246 47.2619 35.2936 47.2937 35.373 47.3254L36.1984 47.5794C36.3095 47.6111 36.4365 47.5952 36.5476 47.5318C36.6428 47.4683 36.7063 47.3571 36.7063 47.2302L36.7222 46.373C36.7222 46.3095 36.7063 46.246 36.6746 46.1825C36.9286 46.0397 37.1349 45.8016 37.2143 45.5159C37.2301 45.4841 37.2301 45.4524 37.246 45.4048C37.2619 45.3413 37.2778 45.2778 37.2778 45.1984C37.2936 45.0873 37.2936 44.9762 37.2936 44.8651C37.2936 44.6111 37.2936 44.373 37.4047 44.0079C37.5159 43.6746 37.6428 43.5 37.7857 43.3254C37.8174 43.2778 37.8492 43.246 37.8809 43.1984C37.9762 43.0873 38.0555 42.9445 38.1032 42.8016C38.1984 42.5 38.1666 42.1667 38.0238 41.881C38.1032 41.8492 38.1666 41.8175 38.2143 41.754L38.7222 41.0556C38.8016 40.9762 38.8333 40.8651 38.7857 40.7381Z" fill="#00285E"/>
<path d="M32.5 42.5952C32.5 42.3254 32.7222 42.119 32.9921 42.119C33.2619 42.119 33.4841 42.3412 33.4841 42.5952C33.4841 42.8651 33.2619 43.0714 32.9921 43.0714C32.7222 43.0714 32.5 42.8492 32.5 42.5952Z" fill="#FFC758"/>
<path d="M32.9762 38.5C32.8969 38.1984 32.7064 37.9444 32.4683 37.8016L32.9762 37.1508L33.4524 37.8016C33.2143 37.9603 33.0556 38.1984 32.9762 38.5ZM29.0874 41.3254C28.8334 41.1508 28.6588 40.9285 28.5635 40.6587L27.8016 40.9127L28.262 41.5793C28.4842 41.4206 28.7858 41.3254 29.0874 41.3254ZM30.5953 45.8174C30.3572 46.0079 30.0874 46.1031 29.7858 46.1031V46.9127L30.5794 46.6746C30.4842 46.4206 30.4842 46.119 30.5953 45.8174ZM35.3572 45.8333C35.4683 46.119 35.4683 46.4047 35.3731 46.6746L36.1508 46.9127L36.1667 46.1031C35.8969 46.119 35.6112 46.0238 35.3572 45.8333ZM36.8334 41.3412C37.1508 41.3254 37.4207 41.4047 37.6429 41.5793L38.1191 40.9285L37.3413 40.6587C37.2778 40.9127 37.0873 41.1666 36.8334 41.3412ZM31.9921 45.8492C31.627 45.8492 31.3413 45.5635 31.3413 45.1984C31.3413 45.1508 31.2937 45.1349 31.262 45.1666C31.0239 45.4523 30.8493 45.7063 30.8334 46.0079C30.8175 46.4523 31.1985 46.8174 31.6588 46.8174C31.6905 46.8174 31.7223 46.8174 31.7381 46.8174C31.7858 46.8174 31.8175 46.8174 31.881 46.8016C32.1985 46.7222 32.4842 46.5635 33.0239 46.5635C33.4842 46.5635 33.7223 46.6904 33.9604 46.7539C34.0556 46.7857 34.1667 46.8174 34.2778 46.8174C34.7381 46.8174 35.1032 46.4523 35.1032 46.0079C35.1032 45.6904 34.9127 45.4523 34.6747 45.1666C34.6588 45.1349 34.6112 45.1666 34.6112 45.1984C34.6112 45.5476 34.3096 45.8492 33.9604 45.8492C33.6905 45.8492 33.3413 45.6111 32.9921 45.6111C32.6905 45.6111 32.262 45.8492 31.9921 45.8492ZM31.5635 44.9603C31.5635 45.2619 31.8016 45.5 32.1032 45.5C32.135 45.5 32.1667 45.5 32.2143 45.4841C32.2302 45.4841 32.2461 45.4841 32.262 45.4682H32.2778C32.4683 45.4047 32.6429 45.3254 32.9762 45.3254C33.3096 45.3254 33.4683 45.4206 33.6588 45.4682C33.7223 45.4841 33.7858 45.5 33.8493 45.5C34.1508 45.5 34.3889 45.2619 34.3889 44.9603C34.3889 44.8809 34.3731 44.8016 34.3413 44.7381C34.3254 44.7063 34.3096 44.6746 34.2937 44.6587C34.2937 44.6587 33.3731 43.4047 33.3413 43.373C33.2937 43.3095 33.2302 43.3412 33.1985 43.3571C33.1508 43.373 33.0397 43.4047 32.9604 43.4047C32.881 43.4047 32.7858 43.3889 32.7381 43.3571C32.6747 43.3254 32.627 43.3095 32.5953 43.373C32.5635 43.4206 31.8969 44.3254 31.6905 44.6111C31.6112 44.7063 31.5635 44.8174 31.5635 44.9603ZM35.8016 44.5476C35.6905 44.8968 35.3254 45.0714 34.9762 44.9603C34.9286 44.9444 34.8969 44.9762 34.9286 45.0238C35.135 45.3254 35.3096 45.5793 35.6112 45.6904C36.0397 45.8333 36.5159 45.5952 36.6429 45.1666C36.6588 45.1349 36.6588 45.119 36.6588 45.0873C36.6747 45.0555 36.6747 45.0079 36.6905 44.9603C36.7223 44.6269 36.6429 44.3254 36.8175 43.8015C36.9604 43.373 37.1508 43.1825 37.2937 42.9762C37.3572 42.8968 37.4207 42.8016 37.4524 42.7063C37.5953 42.2777 37.3572 41.8016 36.9286 41.6746C36.627 41.5793 36.3254 41.6904 35.9762 41.8174C35.9445 41.8333 35.9445 41.865 35.9921 41.8809C36.3413 41.992 36.5318 42.3571 36.4207 42.7063C36.3413 42.9603 36.008 43.2143 35.8969 43.5476C35.8016 43.8174 35.8969 44.2777 35.8016 44.5476ZM34.8175 44.6746C35.1032 44.7698 35.4207 44.6111 35.5159 44.3254C35.5318 44.2936 35.5318 44.2619 35.5318 44.2142C35.5318 44.1984 35.5318 44.1825 35.5318 44.1666V44.1508C35.5318 43.9603 35.5 43.7539 35.5953 43.4523C35.7064 43.1349 35.8334 43.0079 35.9445 42.8492C35.9762 42.8015 36.008 42.7381 36.0397 42.6746C36.135 42.3889 35.9762 42.0873 35.6905 41.992C35.6112 41.9762 35.5318 41.9603 35.4683 41.9762C35.4366 41.9762 35.4048 41.9762 35.3731 41.992C35.3731 41.992 33.881 42.4682 33.8334 42.4841C33.7699 42.5158 33.7699 42.5793 33.7699 42.6111C33.7699 42.6587 33.754 42.7698 33.7381 42.8492C33.7223 42.9127 33.6747 43.0079 33.627 43.0555C33.5794 43.1031 33.5477 43.1508 33.5953 43.1984C33.6429 43.246 34.2778 44.1508 34.5 44.4365C34.5794 44.5476 34.6905 44.6269 34.8175 44.6746ZM35.7064 40.5158C36.008 40.7222 36.0715 41.1349 35.8493 41.4206C35.8175 41.4523 35.8493 41.5 35.8969 41.4841C36.262 41.3889 36.5477 41.2936 36.7381 41.0396C37.008 40.6746 36.9286 40.1666 36.5635 39.8968C36.5477 39.8809 36.5159 39.865 36.4842 39.8492C36.4524 39.8174 36.4207 39.8016 36.3572 39.7857C36.0556 39.6587 35.7381 39.6269 35.2937 39.3095C34.9286 39.0396 34.8016 38.8016 34.6429 38.5952C34.5953 38.5158 34.5159 38.4365 34.4207 38.3571C34.0556 38.0873 33.5318 38.1666 33.2778 38.5317C33.1032 38.7857 33.1032 39.1031 33.1191 39.4682C33.1191 39.5 33.1667 39.5158 33.1826 39.4682C33.3889 39.1825 33.8016 39.119 34.1032 39.3254C34.3254 39.4841 34.4683 39.8809 34.754 40.0714C35.008 40.3095 35.4842 40.3571 35.7064 40.5158ZM35.5318 41.5C35.7064 41.2619 35.6588 40.9127 35.4048 40.7381C35.3889 40.7222 35.3572 40.6904 35.3096 40.6746C35.2937 40.6746 35.2778 40.6587 35.262 40.6587H35.2461C35.0556 40.5952 34.8651 40.5635 34.5953 40.373C34.3254 40.1825 34.2461 40.0079 34.135 39.865C34.1032 39.8174 34.0556 39.7698 34.008 39.7222C33.7699 39.5476 33.4207 39.5952 33.2461 39.8492C33.1985 39.9127 33.1667 39.9762 33.1508 40.0555C33.1508 40.0873 33.135 40.119 33.135 40.1508C33.135 40.1508 33.135 41.7063 33.135 41.7539C33.135 41.8333 33.1985 41.8333 33.2461 41.8492C33.2937 41.865 33.4048 41.9127 33.4524 41.9444C33.5159 41.992 33.5794 42.0555 33.6112 42.1031C33.6429 42.1508 33.6747 42.1984 33.7381 42.1666C33.8016 42.1349 34.8651 41.8016 35.1985 41.6904C35.3413 41.6746 35.4524 41.5952 35.5318 41.5ZM31.8334 39.373C32.1191 39.1666 32.5318 39.2301 32.754 39.5158C32.7858 39.5476 32.8334 39.5476 32.8334 39.5C32.8493 39.1349 32.8493 38.8174 32.6747 38.5635C32.4207 38.1984 31.8969 38.119 31.5318 38.3889C31.5 38.4047 31.4842 38.4206 31.4683 38.4365C31.4366 38.4523 31.4048 38.4841 31.3731 38.5317C31.1508 38.7857 31.0239 39.0714 30.5794 39.3889C30.2143 39.6587 29.9445 39.7063 29.7064 39.7698C29.6112 39.8016 29.5 39.8333 29.4207 39.8968C29.0556 40.1666 28.9604 40.6746 29.2461 41.0396C29.4366 41.2936 29.7381 41.3889 30.0873 41.4841C30.1191 41.5 30.135 41.4523 30.1191 41.4206C29.9127 41.1349 29.9762 40.7222 30.262 40.5158C30.4842 40.3571 30.8969 40.3412 31.1826 40.1349C31.4048 39.9762 31.6112 39.5317 31.8334 39.373ZM32.7223 39.8492C32.5477 39.6111 32.1985 39.5476 31.9604 39.7222C31.9286 39.7381 31.9127 39.7539 31.881 39.7857C31.8651 39.8016 31.8651 39.8016 31.8493 39.8174L31.8334 39.8333C31.7223 39.992 31.627 40.1666 31.3572 40.3571C31.0873 40.5476 30.8969 40.5635 30.7223 40.6428C30.6588 40.6587 30.5953 40.6904 30.5477 40.7222C30.3096 40.8968 30.2461 41.2301 30.4207 41.4841C30.4683 41.5476 30.5318 41.5952 30.5953 41.6269C30.627 41.6428 30.6429 41.6587 30.6747 41.6587C30.6747 41.6587 32.1667 42.1349 32.2143 42.1508C32.2937 42.1666 32.3254 42.119 32.3413 42.0873C32.3731 42.0555 32.4366 41.9603 32.5 41.9127C32.5635 41.865 32.6429 41.8333 32.7064 41.8174C32.7699 41.8015 32.8175 41.7857 32.8175 41.7222C32.8175 41.6587 32.8175 40.5476 32.8175 40.1984C32.8334 40.0873 32.8016 39.9603 32.7223 39.8492ZM29.5477 42.6904C29.4366 42.3412 29.627 41.9762 29.9604 41.865C30.008 41.8492 30.008 41.8016 29.9762 41.7857C29.627 41.6587 29.3254 41.5476 29.0397 41.6428C28.6112 41.7698 28.3731 42.246 28.5159 42.6746C28.5159 42.7063 28.5318 42.7222 28.5477 42.7539C28.5635 42.7857 28.5794 42.8333 28.6112 42.8809C28.7858 43.1666 29.0239 43.373 29.1985 43.8968C29.3413 44.3254 29.2937 44.5952 29.2937 44.8492C29.2778 44.9444 29.2937 45.0555 29.3254 45.1666C29.4683 45.5952 29.9286 45.8333 30.3572 45.6904C30.6588 45.5952 30.8334 45.3412 31.0397 45.0238C31.0556 44.992 31.0239 44.9603 30.9921 44.9762C30.6429 45.0873 30.2778 44.8968 30.1667 44.5635C30.0873 44.3095 30.1985 43.9127 30.0873 43.5793C29.9921 43.2777 29.627 42.9444 29.5477 42.6904ZM30.262 42.0079C29.9762 42.1031 29.8175 42.4047 29.9127 42.6904C29.9127 42.7222 29.9286 42.7539 29.9604 42.7857C29.9762 42.8016 29.9762 42.8174 29.9921 42.8174C29.9921 42.8174 29.9921 42.8333 30.008 42.8333C30.1191 42.992 30.262 43.1349 30.3731 43.4365C30.4842 43.7539 30.4366 43.9285 30.4524 44.119C30.4524 44.1825 30.4524 44.246 30.4842 44.3095C30.5794 44.5952 30.881 44.7539 31.1667 44.6587C31.2461 44.6428 31.3096 44.5952 31.3572 44.5476C31.3731 44.5317 31.4048 44.5 31.4207 44.4841C31.4207 44.4841 32.3413 43.2301 32.3572 43.1825C32.4048 43.119 32.3572 43.0714 32.3254 43.0396C32.2937 43.0079 32.2302 42.9127 32.2143 42.8333C32.1985 42.7698 32.1826 42.6746 32.1826 42.6111C32.1826 42.5476 32.1826 42.5 32.1191 42.4841C32.0556 42.4682 30.9921 42.119 30.6588 42.0079C30.5318 41.9762 30.4048 41.9603 30.262 42.0079Z" fill="#EE3124"/>
<path d="M37.5476 25.8016L40.8968 24.6428C40.8968 24.6428 40.6111 26.0396 40.6905 27.119C40.7857 28.5158 41.5952 29.5793 41.5952 29.5793L37.4683 31.0079L37.5476 25.8016Z" fill="#FFC758"/>
<path d="M41.5952 29.5794C41.5952 29.5794 40.8651 28.5317 40.7381 27.3095C40.6428 26.3889 40.7381 25.5952 40.8968 24.6429C40.754 25.2778 40.2143 27.0714 38.7063 28.7381C38.1032 29.4048 37.8333 29.9921 37.7222 30.4048L37.6587 22.5159C37.6587 22.5159 36.8651 22.8016 36.7857 22.8175C36.6905 22.8492 36.6428 22.9127 36.6428 22.9286C36.6428 22.9762 36.6111 23.0079 36.5476 23.0238C36.4841 23.0397 36.0238 23.2143 35.7063 23.3095C35.6428 23.3254 35.6746 23.3889 35.7063 23.3889C36.0873 23.373 36.627 23.3254 36.6746 23.3254C36.754 23.3095 36.7857 23.2778 36.7857 23.2302C36.7857 23.2302 36.7857 23.2302 36.7857 23.2143C36.8016 23.1508 36.8492 23.1032 36.9127 23.1032C36.9603 23.1032 37.246 23.0714 37.4206 23.0397L37.3413 31.5317H37.7222V30.9286L41.5952 29.5794Z" fill="#D4A11E"/>
<path d="M26.754 31.2301C26.754 31.2301 26.1349 30.7698 25.9603 29.8968C25.7857 29.0079 26.2302 28.5 26.2302 28.5L30.2937 27.1031C30.2937 27.1031 30.0397 27.9127 30.2778 28.8333C30.5794 29.992 31.1984 30.7698 31.1984 30.7698C31.1984 30.7698 29.7064 30.4841 28.2619 30.6746C26.8968 30.8492 26.754 31.2301 26.754 31.2301Z" fill="#FFC758"/>
<path d="M22.0873 30.2143C22.0873 30.2143 22.5952 28.8334 24.0714 27.3254C25.1984 26.1826 25.9285 25.8492 25.9285 25.8492C25.9285 25.8492 25.2778 26.7858 25.0079 28.3254C24.8333 29.2778 25.0238 30.4842 25.0238 30.4842C25.0238 30.4842 24.2619 30.3254 23.3889 30.2302C22.6587 30.1508 22.0873 30.2143 22.0873 30.2143Z" fill="#FFC758"/>
<path d="M25.9286 25.8492C25.9286 25.8492 25.2937 26.7858 25.0238 28.3254C24.8492 29.2778 25.0397 30.4842 25.0397 30.4842C25.0397 30.4842 24.8492 30.4365 24.4048 30.3413C22.5953 29.9286 25.9286 25.8492 25.9286 25.8492Z" fill="#D4A11E"/>
<path d="M28.3095 26.9604L28.2777 23.3096C28.1984 23.3413 27.4841 23.5794 27.4047 23.6112C27.3095 23.6429 27.2619 23.7064 27.2619 23.7381C27.2619 23.7858 27.2301 23.8175 27.1666 23.8334C27.1031 23.8493 26.6428 24.008 26.3254 24.1191C26.2619 24.135 26.2936 24.1985 26.3254 24.1985C26.6904 24.1826 27.246 24.135 27.2936 24.135C27.373 24.1191 27.4047 24.0873 27.4206 24.0397C27.4206 24.0397 27.4206 24.0397 27.4206 24.0239C27.4365 23.9604 27.4841 23.9127 27.5476 23.9127C27.5952 23.9127 27.865 23.881 28.0555 23.8651L28.0238 26.9762H28.3095V26.9604Z" fill="#D4A11E"/>
<path d="M33.0396 23.6587H33.3253V20.1508C33.3253 20.1508 32.5317 20.4365 32.4523 20.4523C32.3571 20.4841 32.3095 20.5476 32.3095 20.5635C32.3095 20.6111 32.2777 20.6428 32.2142 20.6587C32.1507 20.6746 31.6904 20.8333 31.373 20.9444C31.3095 20.9603 31.3412 21.0238 31.373 21.0238C31.7539 21.0079 32.2936 20.9603 32.3412 20.9603C32.4206 20.9444 32.4523 20.9127 32.4682 20.865C32.4841 20.8016 32.5317 20.7539 32.5952 20.7539C32.6428 20.7539 32.8968 20.7222 33.0872 20.7063L33.0396 23.6587Z" fill="#D4A11E"/>
<path d="M32.3253 20.9762H32.3412C32.4206 20.9603 32.4523 20.9286 32.4523 20.881C32.4523 20.8333 32.4841 20.8016 32.5317 20.7857L32.4365 20.4841C32.3412 20.5159 32.3095 20.5794 32.3095 20.5952C32.3095 20.6429 32.2777 20.6587 32.2301 20.6746L32.3253 20.9762Z" fill="#FFC758"/>
<path d="M27.2777 24.119H27.2936C27.373 24.1031 27.4047 24.0714 27.4047 24.0238C27.4206 23.9762 27.4365 23.9444 27.4841 23.9285L27.3888 23.627C27.2936 23.6587 27.2619 23.7222 27.2619 23.7381C27.2619 23.7857 27.2301 23.8016 27.1825 23.8174L27.2777 24.119Z" fill="#FFC758"/>
<path d="M36.6428 23.3254H36.6587C36.7381 23.3096 36.7698 23.2778 36.7698 23.2302C36.7857 23.1826 36.8016 23.1508 36.8492 23.135L36.754 22.8334C36.6587 22.8651 36.627 22.9286 36.627 22.9445C36.627 22.9921 36.5952 23.008 36.5476 23.0238L36.6428 23.3254Z" fill="#FFC758"/>
<path d="M31.1984 30.7698C31.1984 30.7698 30.5476 29.8174 30.2937 28.8016C30.0714 27.9285 30.2937 27.1031 30.2937 27.1031C30.2937 27.1031 29.8651 28.5952 28.8333 29.4047C28.119 29.9762 26.3571 30.5 26.7698 31.2301C26.8333 31.1349 27.0079 30.9444 27.7222 30.7698C27.8016 30.7539 27.8968 30.7381 27.9921 30.7222V31.9285H28.373V30.6746C29.6905 30.5317 31.1984 30.7698 31.1984 30.7698Z" fill="#D4A11E"/>
<path d="M26.3254 28.246C26.3254 28.246 25.8492 27.9603 25.9127 27.0397C25.9762 26.0873 26.4524 25.6746 26.4524 25.6428L29.6111 24.5635C29.6111 24.5635 29.373 25.0397 29.5476 25.754C29.7381 26.6111 30.2936 27.1032 30.2936 27.1032C30.2936 27.1032 28.7063 27.119 27.2778 27.6111C26.5794 27.8492 26.3254 28.246 26.3254 28.246Z" fill="#FFC758"/>
<path d="M28.1984 26.2619C29.1032 25.5159 29.5953 24.5635 29.5953 24.5635C29.5953 24.5635 29.4683 25.1667 29.5635 25.7063C29.7381 26.627 30.2778 27.1032 30.2778 27.1032C30.2778 27.1032 28.9921 27.119 27.6111 27.5159C26.6905 27.7698 26.4048 28.1349 26.3254 28.2619C26.0238 27.5635 27.2778 27.0238 28.1984 26.2619Z" fill="#D4A11E"/>
<path d="M31.8016 31.4682C31.8016 31.4682 30.9286 30.8174 30.7223 29.5952C30.5477 28.6269 31.1985 27.9285 31.1985 27.9285L36.135 26.2301C36.135 26.2301 35.8651 27.3253 36.1191 28.373C36.4048 29.5476 37.4842 31.0079 37.4842 31.0079C37.4842 31.0079 35.4365 30.4206 33.6588 30.6428C31.9604 30.865 31.8016 31.4682 31.8016 31.4682Z" fill="#FFC758"/>
<path d="M30.8016 23.6429C30.7698 22.8968 31.2936 22.2936 31.3095 22.2619L34.8492 21.0238C34.8492 21.0238 34.6111 21.5794 34.6746 22.0555C34.7857 22.9603 35.2936 23.4365 35.2936 23.4365C35.2936 23.4365 33.8968 23.3571 32.2619 23.9286C31.3571 24.246 31.2619 24.6746 31.2619 24.6746C31.2619 24.6746 30.8333 24.5635 30.8016 23.6429Z" fill="#FFC758"/>
<path d="M33.5953 22.6905C34.2302 22.1349 34.8492 21.0397 34.8492 21.0397C34.8492 21.0397 34.6111 21.5952 34.6746 22.0714C34.7857 22.9762 35.2937 23.4524 35.2937 23.4524C35.2937 23.4524 33.7857 23.4365 32.3413 23.9444C31.7223 24.1667 31.3254 24.5 31.2778 24.6905C31.0715 23.9921 32.7223 23.4524 33.5953 22.6905Z" fill="#D4A11E"/>
<path d="M31.3096 27.7222C31.3096 27.7222 30.8016 27.1349 30.7064 26.2143C30.6112 25.2619 31.1667 24.881 31.2143 24.8492L35.3096 23.4365C35.3096 23.4365 35.1985 23.7381 35.2937 24.5635C35.3889 25.2619 36.0715 26.2143 36.0715 26.2143C36.0715 26.2143 33.881 26.2778 32.5318 26.8016C31.6746 27.1349 31.3096 27.7222 31.3096 27.7222Z" fill="#FFC758"/>
<path d="M34.0238 25.3572C34.9127 24.5952 35.3095 23.4524 35.3095 23.4524C35.3095 23.4524 35.1984 24.1032 35.3095 24.6111C35.5159 25.5 36.1508 26.246 36.1508 26.246C36.1508 26.246 34.246 26.2778 32.8651 26.7381C31.9603 27.0397 31.4048 27.5794 31.3254 27.7381C31.119 26.9603 33.1349 26.1191 34.0238 25.3572Z" fill="#D4A11E"/>
<path d="M37.5634 31.0874C37.5634 31.0874 36.4523 29.6429 36.119 28.3731C35.9126 27.5318 36.0714 26.5794 36.1349 26.2461C36.0079 26.6905 35.5634 28.135 34.4682 29.1509C33.4206 30.1191 31.3571 30.5794 31.8015 31.4842C31.8809 31.3413 32.119 30.9921 32.9603 30.7858L32.9444 31.9445H33.3412V30.7064C35.1666 30.4207 37.5634 31.0874 37.5634 31.0874Z" fill="#D4A11E"/>
<path fill-rule="evenodd" clip-rule="evenodd" d="M39.4682 33.8016C39.7222 33.754 39.9761 33.6905 40.3571 33.5953C40.3412 33.5794 40.3095 33.5635 40.2936 33.5476C39.8809 33.0873 39.9444 32.5953 40.1984 32.3572C41.119 31.5 41.1031 30.8651 41.1031 30.8651C41.1031 30.8651 38.865 31.3254 35.9127 31.4842C35.7222 31.5 35.0396 31.8016 34.8333 31.8016C34.4206 31.8175 34.0079 31.8334 33.5793 31.8334C28.0079 31.881 26.4523 31.4842 24.6269 31.1508C22.7698 30.8016 21.9603 30.4365 21.9603 30.4365L21.8968 30.627C21.8968 30.627 23.3571 31.1984 24.4047 31.7064C24.6269 31.8175 25.5 33.1191 25.7857 33.5635H19.1666C18.8015 25.9762 20.2619 19.7699 20.2619 19.7699C20.2619 19.7699 25.3253 18.6905 32.9444 18.6905V17.881C24.865 17.881 19.4841 19.0238 19.4841 19.0238C19.4841 19.0238 17.1349 27.3096 18.373 37.1826C18.8968 41.2937 22.2936 48.9921 32.9126 52.5635L33.373 51.9127L32.9126 51.2619C22.9126 47.9127 19.992 41.135 19.4841 37.2778C19.373 36.4207 19.2936 35.5635 19.2301 34.7381H32.9603V33.5794H25.9127C26.0714 33.0715 26.5634 32.9445 27.1825 33.0873C27.8174 33.2461 28.4523 33.4048 29.0555 33.373C30.5634 33.2937 30.3412 32.8969 30.4841 32.8969C32.0396 32.9921 32.6269 33.373 33.9761 33.3413C35.2142 33.3254 35.6428 32.9921 35.7539 32.9921C37.2619 32.9762 37.8333 33.6746 39.3412 33.8016C39.3888 33.8016 39.4365 33.8016 39.4682 33.8016Z" fill="#FFC758"/>
<path fill-rule="evenodd" clip-rule="evenodd" d="M46.3889 19.0238C46.3889 19.0238 41.0238 17.881 32.9445 17.881V18.6905C40.5635 18.6905 45.6111 19.7699 45.6111 19.7699C45.6111 19.7699 47.0873 25.9762 46.7064 33.5635H40.0715C39.5477 33.0556 39.8492 32.3889 40.0238 32.2302C40.8016 31.5318 40.8016 31.0556 40.8016 31.0556C40.8016 31.0556 39.008 31.5 36.0556 31.627C35.8651 31.627 35.0397 32.008 34.8334 32.008C34.4207 32.0238 33.8492 32.0397 33.4207 32.0397C29.5794 32.0397 27.6905 31.9603 24.3572 31.2461C24.4207 31.3254 24.4524 31.3572 24.5159 31.4524C24.5318 31.4842 25.9762 31.8492 25.9921 31.881C26.2143 32.1826 26.5 32.3889 26.8492 32.5794C27.3889 32.8651 28.1826 33.1032 28.8334 33.1508C30.3413 33.2461 30.0556 32.6746 30.1984 32.6746C31.7381 32.6429 32.7381 33.1984 34.0873 33.1826C35.3254 33.1667 35.3572 32.7699 35.4842 32.7699C36.7064 32.7064 37.9445 33.2302 39.008 33.5794H32.9445V34.7381H46.627C46.5635 35.5794 46.4842 36.4207 46.3731 37.2778C45.8651 41.1508 42.9445 47.9127 32.9445 51.2619V52.5635C43.5635 48.9921 46.9762 41.3096 47.4842 37.1826C48.7381 27.3096 46.3889 19.0238 46.3889 19.0238Z" fill="#D4A11E"/>
<path d="M8.15076 22.5952L8.70631 21.5317L11.2142 21.3571L9.94441 19.1825L10.5 18.1349L14.9603 20.4841L14.4523 21.4523L11.5317 19.9285L12.7857 22.1825L12.7698 22.1984L10.2301 22.4523L13.119 23.9762L12.6111 24.9444L8.15076 22.5952Z" fill="#00285E"/>
<path d="M13.246 14.6588L13.9444 13.9127L19.119 15.8175L18.3253 16.6588L17.1825 16.2143L15.7222 17.7699L16.2301 18.881L15.4523 19.7064L13.246 14.6588ZM16.2142 15.8492L14.5634 15.2143L15.2936 16.8175L16.2142 15.8492Z" fill="#00285E"/>
<path d="M17.246 10.992L18.119 10.4682L21.7539 11.8968L20.1507 9.24599L21.0872 8.67456L23.6904 12.9761L22.8809 13.4682L19.1349 11.992L20.8015 14.7381L19.865 15.3095L17.246 10.992Z" fill="#00285E"/>
<path d="M24.0238 10.119C23.6269 8.72221 24.3253 7.29364 25.8174 6.86507C26.7222 6.59522 27.373 6.75395 27.9444 7.05554L27.4841 8.03967C27.0079 7.80157 26.5793 7.70634 26.0873 7.84919C25.2777 8.08729 24.8809 8.92856 25.119 9.76983V9.7857C25.3571 10.6111 26.1349 11.1349 26.9603 10.8968C27.5158 10.7381 27.7857 10.4206 28.0714 9.9603L28.9444 10.4524C28.5952 11.1349 28.1349 11.627 27.2142 11.8968C25.8015 12.3095 24.4206 11.5159 24.0238 10.119Z" fill="#00285E"/>
<path d="M30.0714 6.07144L31.1666 6.03969L31.2301 8.03969L33.2619 7.99207L33.2143 5.99207L34.3254 5.96033L34.4524 11.0079L33.3413 11.0397L33.2936 9.00795L31.246 9.07144L31.3095 11.0873L30.1984 11.1191L30.0714 6.07144Z" fill="#00285E"/>
<path d="M40.8491 11.6905L41.7698 11.246C42.0237 11.7698 42.3571 12.1984 42.8809 12.4365C43.2936 12.627 43.611 12.5794 43.738 12.3095V12.2936C43.865 12.0397 43.7539 11.8333 43.0872 11.2936C42.2777 10.627 41.8015 10.1032 42.2142 9.1984V9.18252C42.5952 8.35713 43.5158 8.11903 44.4523 8.5476C45.119 8.84919 45.5952 9.32538 45.8809 9.91268L45.0079 10.4365C44.738 9.9603 44.4047 9.6111 44.0237 9.43649C43.6428 9.26189 43.3571 9.34125 43.2459 9.56348V9.57935C43.1031 9.88094 43.2618 10.0714 43.9602 10.6428C44.7698 11.3095 45.1507 11.8968 44.7698 12.6905V12.7063C44.3571 13.6111 43.4206 13.8016 42.4364 13.3571C41.7698 13.0079 41.1825 12.4365 40.8491 11.6905Z" fill="#00285E"/>
<path d="M48.2142 11.9921L46.992 11.0556L47.611 10.2461L50.9285 12.7699L50.3095 13.5953L49.0872 12.6588L46.6587 15.8493L45.7698 15.1826L48.2142 11.9921Z" fill="#00285E"/>
<path d="M56.1825 19.1508L57.2142 21.2142C57.5 21.7857 57.5635 22.3095 57.4206 22.7539C57.2936 23.1349 57.0079 23.4365 56.5793 23.6587H56.5635C55.8333 24.0238 55.1825 23.865 54.6746 23.3889L53.6111 25.2936L53.0238 24.1349L53.9762 22.4365L53.5793 21.6587L52.1349 22.3889L51.6428 21.4047L56.1825 19.1508ZM54.992 22.246C55.2301 22.7222 55.6269 22.8809 56.0079 22.6904H56.0238C56.4523 22.4841 56.5158 22.0714 56.2777 21.5952L55.7857 20.6111L54.5 21.2619L54.992 22.246Z" fill="#00285E"/>
<path d="M37.4841 9.45243L39.3413 9.84926L39.8651 8.96037L37.7064 8.48418L37.9127 7.48418L40.5476 8.05561L40.7698 7.10322L37.0397 6.2937L35.9762 11.2143L39.7381 12.0397L39.9445 11.0715L37.2619 10.4842L37.4841 9.45243Z" fill="#00285E"/>
<path d="M52.4524 14.2778L48.5793 17.5159L51.0555 20.4524L51.8016 19.8175L50.0555 17.7223L50.8651 17.0397L52.1032 18.5159L53.1032 18.1826L51.627 16.4048L52.4047 15.754L54.1349 17.8175L54.8968 17.1826L52.4524 14.2778Z" fill="#00285E"/>
<path d="M24.4524 57.2619C24.4524 55.7857 25.5476 54.5952 27.1349 54.5952C28.1032 54.5952 28.6746 54.9127 29.1667 55.3889L28.4524 56.2143C28.0556 55.8492 27.6587 55.6428 27.1349 55.6428C26.2619 55.6428 25.6429 56.3571 25.6429 57.246V57.2619C25.6429 58.1349 26.246 58.8809 27.1349 58.8809C27.7222 58.8809 28.0873 58.6428 28.4841 58.2778L29.1984 59.0079C28.6746 59.5793 28.0873 59.9285 27.0873 59.9285C25.5794 59.8968 24.4524 58.7222 24.4524 57.2619Z" fill="#00285E"/>
<path d="M30.2937 54.6746H31.4207V59.8015H30.2937V54.6746Z" fill="#00285E"/>
<path d="M34.0397 55.7222H32.4841V54.6746H36.7381V55.7222H35.1825V59.8174H34.0556V55.7222H34.0397Z" fill="#00285E"/>
<path d="M39.1826 57.7857L37.2144 54.6746H38.5318L39.754 56.7381L40.9921 54.6746H42.2778L40.3096 57.7539V59.8015H39.1826V57.7857Z" fill="#00285E"/>
</g>
<defs>
<clipPath id="clip0_16_142">
<rect width="65" height="65" fill="white" transform="translate(0.5 0.5)"/>
</clipPath>
</defs>
</svg>
